<svg width="390" height="410" viewBox="0 0 390 410" fill="none" xmlns="http://www.w3.org/2000/svg">
<path d="M63.9746 26.6428L72.9345 31.6204C72.9345 31.6204 71.6346 34.2255 69.9634 38.5518L61.2356 33.9929C62.0248 31.5739 62.9533 29.1549 63.9746 26.6428Z" fill="white"/>
<path d="M65.7855 100.283C65.7855 100.283 49.3049 78.7912 59.6111 39.8079L68.4317 42.9712C63.9749 56.4153 56.872 79.1168 65.7855 100.283Z" fill="white"/>
<path d="M188.113 329.206L103.203 359.072C103.203 359.072 102.739 380.424 109.424 392.519L270.656 392.24C270.656 392.24 271.445 357.351 254.082 336.37C254.082 336.37 229.199 337.859 216.525 336.51C203.851 335.161 192.988 333.486 188.113 329.206Z" fill="#1A1A1A"/>
<path d="M231.427 172.807C231.427 172.807 212.347 171.505 203.387 146.803C203.387 146.803 191.456 146.756 188.113 167.132C188.113 167.132 188.16 156.246 198.466 143.919C199.533 142.616 201.623 140.383 203.155 139.732C209.979 136.801 216.896 137.127 231.798 139.034C244.519 140.709 254.593 148.385 256.078 161.038L248.279 205.278C248.279 205.278 248.186 207.185 255.382 212.256C262.578 217.327 267.22 223.793 260.674 233.981L252.318 229.422C252.318 229.422 236.301 238.074 228.641 219.885C228.641 219.885 224.603 212.349 228.874 202.068C233.145 191.787 237.091 189.182 237.091 189.182C238.051 189.281 239.022 189.17 239.935 188.856C240.849 188.543 241.684 188.035 242.383 187.368C244.054 185.693 245.169 183.646 245.122 178.483C245.076 172.063 241.269 170.109 238.53 169.923C235.791 169.737 233.748 170.435 231.427 172.807Z" fill="#1A1A1A"/>
<path d="M191.827 202.115C191.827 202.115 192.941 208.441 204.455 211.046L204.315 219.978C204.315 219.978 199.116 222.955 197.723 226.724C197.723 226.724 191.688 227.142 188.577 221.56C185.978 216.861 186.303 207.604 191.827 202.115Z" fill="#1A1A1A"/>
<path d="M77.252 155.363C76.8342 155.967 79.6196 162.759 79.6196 162.759L85.3298 165.504L82.5444 155.781H77.3913L77.252 155.363Z" fill="#3A3B3A"/>
<path d="M157.52 43.5294C156.452 46.0415 136.861 40.6452 112.86 30.4109C88.8584 20.1766 69.9173 10.5471 70.9386 8.08152C71.9599 5.61598 92.6652 11.1518 116.666 21.3861C140.668 31.6204 158.541 41.0174 157.52 43.5294Z" fill="#1A1A1A"/>
<path d="M25.1179 151.594L20.9861 160.852C20.9861 160.852 31.4316 171.179 53.8081 179.413C76.1846 187.647 84.0303 189.182 91.0403 186.763L95.0792 177.366C95.0792 177.366 81.3841 183.181 49.537 166.388C24.4215 153.176 25.1179 151.594 25.1179 151.594Z" fill="#1A1A1A"/>
<path d="M216.432 190.159C216.432 190.159 214.946 187.135 212.857 188.252C210.768 189.368 211.232 193.043 208.772 193.183C206.311 193.322 202.18 191.415 201.205 193.183C200.23 194.951 202.18 199.928 209.747 199.835C209.747 199.835 208.308 196.02 210.165 193.927C212.022 191.834 216.432 190.159 216.432 190.159Z" fill="#3A3B3A"/>
<path d="M213.647 104.517C212.904 104.098 212.904 103.679 213.182 103.4L220.192 96.3756C220.316 96.2522 220.483 96.1829 220.657 96.1829C220.831 96.1829 220.998 96.2522 221.121 96.3756C221.244 96.4989 221.313 96.6663 221.313 96.8408C221.313 97.0152 221.244 97.1826 221.121 97.3059L214.111 104.33C214.05 104.391 213.977 104.438 213.897 104.47C213.818 104.502 213.732 104.518 213.647 104.517Z" fill="#1A1A1A"/>
<path d="M220.657 104.517C220.192 104.331 213.182 97.3061 213.182 97.3061C213.114 97.2493 213.059 97.1782 213.022 97.0978C212.984 97.0174 212.964 96.9297 212.964 96.8409C212.964 96.7521 212.984 96.6643 213.022 96.5839C213.059 96.5035 213.114 96.4324 213.182 96.3757C213.31 96.2613 213.475 96.198 213.647 96.198C213.818 96.198 213.983 96.2613 214.111 96.3757L221.121 103.4C221.235 103.528 221.298 103.694 221.298 103.865C221.298 104.037 221.235 104.203 221.121 104.331C221.06 104.391 220.987 104.438 220.907 104.47C220.828 104.502 220.742 104.518 220.657 104.517Z" fill="#1A1A1A"/>
<path d="M207.287 91.1655C206.939 91.1655 206.595 91.0969 206.274 90.9637C205.953 90.8304 205.661 90.6351 205.415 90.3889C205.17 90.1427 204.975 89.8503 204.842 89.5286C204.709 89.2069 204.64 88.8621 204.64 88.5139C204.631 87.9764 204.782 87.4484 205.075 86.9977C205.367 86.5469 205.787 86.1939 206.281 85.984C206.775 85.774 207.32 85.7167 207.847 85.8193C208.373 85.9219 208.857 86.1798 209.237 86.5599C209.616 86.94 209.873 87.425 209.976 87.9527C210.078 88.4804 210.021 89.0267 209.811 89.5216C209.602 90.0165 209.25 90.4373 208.8 90.7302C208.35 91.0231 207.823 91.1747 207.287 91.1655ZM207.287 87.1648C207.02 87.1648 206.76 87.244 206.539 87.3922C206.317 87.5404 206.145 87.7511 206.043 87.9976C205.941 88.2442 205.914 88.5154 205.966 88.7771C206.018 89.0388 206.146 89.2792 206.335 89.4678C206.523 89.6565 206.763 89.785 207.024 89.837C207.285 89.8891 207.556 89.8624 207.802 89.7603C208.048 89.6582 208.258 89.4853 208.406 89.2634C208.554 89.0415 208.633 88.7807 208.633 88.5139C208.633 88.1561 208.491 87.813 208.238 87.56C207.986 87.307 207.644 87.1648 207.287 87.1648Z" fill="#1A1A1A"/>
<path d="M306.82 219.513C306.285 219.513 305.763 219.353 305.319 219.055C304.875 218.756 304.53 218.332 304.328 217.836C304.126 217.34 304.075 216.796 304.183 216.271C304.291 215.746 304.552 215.266 304.933 214.89C305.314 214.515 305.798 214.262 306.324 214.163C306.849 214.064 307.392 214.124 307.883 214.336C308.374 214.547 308.791 214.9 309.081 215.35C309.372 215.8 309.522 216.326 309.512 216.861C309.5 217.569 309.211 218.243 308.708 218.739C308.204 219.235 307.526 219.513 306.82 219.513ZM306.82 215.512C306.554 215.512 306.293 215.591 306.072 215.739C305.851 215.888 305.678 216.098 305.576 216.345C305.474 216.591 305.447 216.863 305.499 217.124C305.551 217.386 305.68 217.626 305.868 217.815C306.056 218.004 306.296 218.132 306.557 218.184C306.818 218.236 307.089 218.21 307.335 218.108C307.581 218.005 307.791 217.833 307.939 217.611C308.087 217.389 308.166 217.128 308.166 216.861C308.166 216.503 308.024 216.16 307.772 215.907C307.519 215.654 307.177 215.512 306.82 215.512Z" fill="#1A1A1A"/>
<path d="M0.652151 346.744C0.327182 345.534 1.16281 344.976 2.55553 343.86C7.70862 339.766 20.1503 328.648 23.4929 313.389C26.0733 301.62 27.088 289.559 26.5104 277.523C26.4974 277.44 26.5017 277.355 26.5232 277.274C26.5447 277.192 26.5829 277.116 26.6353 277.051C26.6877 276.985 26.7532 276.931 26.8277 276.892C26.9021 276.853 26.9838 276.83 27.0675 276.825C27.3461 276.778 58.7288 271.708 75.0701 263.381C76.2308 264.869 81.3838 289.385 73.6774 303.341C72.6472 305.206 71.4836 306.994 70.1956 308.691C63.0927 317.809 53.6686 320.972 41.1341 318.274C40.3449 322.647 34.4954 345.348 0.698564 346.744H0.652151ZM27.8567 278.035C28.3794 289.995 27.3495 301.974 24.7927 313.668C21.3573 329.346 8.63711 340.743 3.34475 344.93C36.9095 342.836 39.927 317.669 39.927 317.437C53.0651 319.67 62.2571 316.739 69.1743 307.854C70.4263 306.226 71.5441 304.499 72.5168 302.69C79.2019 290.595 75.7201 269.382 74.8844 264.916C59.4716 272.499 32.2206 277.29 27.8567 278.035Z" fill="#1A1A1A"/>
<path d="M2.32336 346.837C1.73399 346.841 1.1449 346.81 0.559244 346.744C0.395093 346.721 0.245993 346.635 0.142435 346.506C0.0388773 346.376 -0.0113152 346.212 0.00214791 346.046C0.0234575 345.885 0.100016 345.737 0.218628 345.627C0.33724 345.516 0.490508 345.451 0.652098 345.441C36.7701 343.953 39.927 317.669 39.927 317.436C53.065 319.669 62.257 316.739 69.1742 307.853C69.224 307.787 69.2871 307.731 69.3595 307.689C69.4319 307.648 69.5121 307.622 69.595 307.613C69.6778 307.605 69.7616 307.613 69.841 307.639C69.9204 307.664 69.9937 307.705 70.0563 307.76C70.1331 307.801 70.1993 307.859 70.2498 307.929C70.3003 308 70.3336 308.081 70.3472 308.167C70.3607 308.253 70.354 308.341 70.3277 308.424C70.3014 308.507 70.2561 308.582 70.1956 308.644C63.5105 317.948 53.4829 324.647 47.4477 328.601C22.6108 345.069 7.61572 346.837 2.32336 346.837ZM41.134 318.274C39.4858 326.155 35.0093 333.157 28.553 337.952C34.8445 334.918 40.9107 331.435 46.7049 327.531C50.6974 324.88 56.454 321.065 61.7928 316.087C56.0826 319.297 49.2583 319.995 41.134 318.274Z" fill="#1A1A1A"/>
<path d="M352.734 348.186C352.501 348.139 331.75 338.975 331.75 338.975C331.669 338.94 331.597 338.889 331.536 338.825C331.476 338.761 331.429 338.685 331.399 338.603C331.368 338.52 331.355 338.432 331.36 338.344C331.364 338.256 331.386 338.17 331.425 338.091C331.496 337.94 331.622 337.821 331.778 337.761C331.933 337.7 332.106 337.702 332.261 337.765L352.594 346.744C356.494 342.604 394.515 301.527 387.877 277.011L344.795 257.845C344.145 262.962 340.292 288.594 323.347 309.063C323.236 309.199 323.076 309.285 322.902 309.302C322.728 309.32 322.554 309.267 322.419 309.156C322.283 309.045 322.197 308.885 322.18 308.71C322.162 308.536 322.215 308.361 322.326 308.226C340.895 285.803 343.542 257.101 343.588 256.775C344.517 256.263 388.712 275.941 388.712 275.941C396.604 302.736 355.008 346.139 353.244 348C353.176 348.064 353.096 348.113 353.008 348.145C352.92 348.177 352.827 348.191 352.734 348.186Z" fill="#1A1A1A"/>
<path d="M322.558 155.828C295.539 150.85 275.251 94.1426 274.416 91.7236C274.602 91.0258 316.337 56.3223 316.337 56.3223C319.912 97.8642 359.836 123.45 360.208 123.729C360.301 124.753 323.022 155.688 323.022 155.688C322.886 155.782 322.723 155.831 322.558 155.828ZM275.809 91.7236C277.758 97.0734 297.582 149.501 322.419 154.432L358.769 124.334C353.244 120.566 319.215 96.0034 316.198 58.1365L275.809 91.7236Z" fill="#1A1A1A"/>
<path d="M17.3647 239.702C13.3257 236.725 8.63689 232.213 6.91919 226.91C5.89786 223.793 6.40851 220.815 8.26548 218.629C7.42984 215.28 7.52271 210.907 8.54404 205.65C8.59653 205.487 8.70377 205.346 8.8476 205.253C8.99143 205.16 9.163 205.119 9.33326 205.138C9.41958 205.155 9.50164 205.189 9.57453 205.238C9.64743 205.287 9.70965 205.35 9.75738 205.424C9.80511 205.498 9.83737 205.581 9.85225 205.668C9.86712 205.755 9.8643 205.844 9.84392 205.929C9.10113 209.651 8.68331 213.931 9.37967 217.513C9.88858 217.108 10.4323 216.75 11.0045 216.443C12.3508 215.698 14.4399 214.954 16.529 215.559C17.5349 215.898 18.44 216.485 19.1616 217.265C19.8833 218.045 20.3987 218.994 20.6608 220.025C21.1714 221.839 20.9393 224.211 19.1752 225.514C17.4111 226.816 16.0183 226.584 14.115 225.84C12.2116 225.095 9.79748 222.955 8.72972 220.164C7.61554 221.932 7.38344 224.118 8.17265 226.491C9.75108 231.515 14.2542 235.795 17.7825 238.539C17.8506 238.594 17.9073 238.661 17.949 238.737C17.9907 238.814 18.0167 238.898 18.0254 238.985C18.034 239.072 18.0252 239.159 17.9994 239.243C17.9736 239.326 17.9314 239.403 17.8753 239.47C17.8153 239.547 17.7375 239.609 17.6486 239.649C17.5596 239.69 17.4622 239.708 17.3647 239.702ZM9.75106 218.955C10.4939 221.56 12.0259 223.607 14.6256 224.63C16.0648 225.188 17.5039 225.142 18.386 224.444C19.2681 223.746 19.7787 221.699 19.4073 220.35C19.1968 219.544 18.7895 218.803 18.2223 218.194C17.655 217.585 16.9455 217.127 16.1576 216.861C14.8577 216.489 13.2329 216.722 11.608 217.606C10.9271 217.963 10.3016 218.417 9.75106 218.955Z" fill="#1A1A1A"/>
<path d="M362.111 212.535C360.719 211.232 359.465 209.697 358.026 208.208C356.102 209.153 354.028 209.751 351.898 209.976C349.252 210.255 347.302 209.79 345.956 208.534C344.609 207.278 344.145 204.859 345.213 203.37C345.576 202.9 346.039 202.518 346.57 202.252C347.1 201.987 347.684 201.844 348.277 201.835C351.944 201.51 355.473 203.929 358.258 206.58C362.204 204.487 365.593 200.951 366.568 196.486C367.013 194.44 366.868 192.311 366.15 190.345L364.804 191.229C363.69 191.973 362.204 192.811 360.486 192.811C359.398 192.793 358.342 192.44 357.461 191.799C356.58 191.158 355.918 190.26 355.565 189.229C355.291 188.389 355.301 187.482 355.595 186.648C355.889 185.815 356.45 185.103 357.19 184.623C359.419 183.041 362.529 183.925 364.479 185.6C365.327 186.364 366.048 187.259 366.614 188.252C369.91 185.46 372.557 181.925 374.785 178.948C374.895 178.813 375.051 178.723 375.222 178.698C375.394 178.672 375.569 178.711 375.714 178.808C375.848 178.918 375.937 179.074 375.963 179.246C375.989 179.418 375.95 179.594 375.853 179.739C373.532 182.855 370.746 186.577 367.218 189.461C368.178 191.771 368.404 194.321 367.868 196.765C366.8 201.603 363.318 205.324 359.233 207.604C360.427 208.832 361.559 210.121 362.622 211.465C362.678 211.532 362.72 211.609 362.746 211.692C362.772 211.775 362.781 211.863 362.772 211.95C362.763 212.037 362.737 212.121 362.696 212.197C362.654 212.274 362.597 212.341 362.529 212.395C362.407 212.483 362.261 212.532 362.111 212.535ZM348.834 203.091C347.441 203.184 346.698 203.557 346.281 204.161C345.863 204.766 345.956 206.72 346.838 207.557C347.72 208.395 349.53 208.906 351.759 208.674C353.554 208.455 355.306 207.969 356.958 207.232C354.59 204.999 351.759 203.091 348.834 203.091ZM359.883 185.088C359.199 185.075 358.53 185.287 357.979 185.693C356.447 186.763 356.587 188.112 356.819 188.81C357.082 189.568 357.57 190.228 358.217 190.701C358.864 191.175 359.639 191.44 360.44 191.461C361.833 191.461 363.133 190.764 364.107 190.112L365.547 189.089C365.043 188.161 364.384 187.326 363.597 186.623C362.572 185.698 361.26 185.156 359.883 185.088Z" fill="#1A1A1A"/>
<path d="M259.607 39.4821C257.332 39.296 256.078 38.3191 255.614 36.8304C255.404 36.0063 255.404 35.1425 255.614 34.3184C256.257 31.3139 257.953 28.64 260.396 26.7822C257.935 23.2467 254.361 21.3859 250.368 21.7581C250.283 21.7644 250.197 21.7538 250.116 21.7268C250.035 21.6998 249.959 21.657 249.895 21.6008C249.83 21.5446 249.777 21.4761 249.739 21.3993C249.701 21.3225 249.678 21.2389 249.672 21.1533C249.658 21.0665 249.664 20.9777 249.688 20.8933C249.712 20.8088 249.755 20.7306 249.812 20.6642C249.87 20.5978 249.941 20.5447 250.021 20.5087C250.101 20.4726 250.188 20.4545 250.275 20.4556C254.732 20.0369 258.725 22.0837 261.464 25.9914C263.903 24.3763 266.757 23.5037 269.681 23.4793C269.858 23.4789 270.028 23.546 270.157 23.667C270.287 23.788 270.365 23.9537 270.377 24.1306C270.377 24.2161 270.36 24.3008 270.328 24.3798C270.295 24.4588 270.247 24.5306 270.187 24.5911C270.126 24.6516 270.055 24.6996 269.976 24.7323C269.897 24.765 269.813 24.7819 269.727 24.7819C267.044 24.825 264.431 25.6493 262.206 27.1544C263.182 28.7922 263.917 30.5627 264.388 32.4111C264.713 33.6671 265.038 35.4814 264.203 37.0165C263.367 38.5517 261.51 39.4821 259.607 39.4821ZM261.139 27.9452C258.982 29.5855 257.484 31.9454 256.914 34.5975C256.737 35.1872 256.721 35.8137 256.868 36.4118C257.022 36.8998 257.323 37.3277 257.731 37.6361C258.139 37.9445 258.632 38.1182 259.142 38.133C260.721 38.2725 262.392 37.5282 263.042 36.4118C263.692 35.2953 263.553 34.3649 263.088 32.7367C262.666 31.0558 262.01 29.4428 261.139 27.9452Z" fill="#1A1A1A"/>
<path d="M207.983 200.487C203.805 200.487 200.23 197.416 200.091 194.904C200.036 194.475 200.079 194.038 200.215 193.628C200.352 193.217 200.579 192.842 200.88 192.532C201.901 191.415 203.898 191.183 205.662 191.927C207.426 192.671 207.565 192.718 207.983 192.718C209.143 192.346 209.376 192.253 210.397 190.206C211.418 188.159 212.672 187.601 214.064 187.601C214.561 187.602 215.049 187.725 215.487 187.96C215.924 188.196 216.296 188.536 216.571 188.95C217.361 189.973 217.407 191.741 216.85 193.695C215.921 196.625 213.832 198.951 211.186 199.882C210.167 200.288 209.079 200.493 207.983 200.487ZM203.526 192.811C203.22 192.782 202.912 192.822 202.623 192.926C202.334 193.031 202.072 193.198 201.855 193.416C201.685 193.603 201.555 193.824 201.475 194.064C201.395 194.304 201.366 194.559 201.391 194.811C201.483 196.3 204.13 199.137 207.983 199.137C209.72 199.17 211.418 198.614 212.8 197.558C214.182 196.503 215.168 195.01 215.596 193.322C216.014 191.834 216.014 190.392 215.504 189.74C214.482 188.298 212.486 188.996 211.604 190.81C210.722 192.625 209.979 193.462 209.004 193.788C208.029 194.113 207.519 194.206 205.105 193.136C204.607 192.918 204.069 192.807 203.526 192.811Z" fill="#1A1A1A"/>
<path d="M237.184 189.973C236.164 189.95 235.158 189.725 234.226 189.309C233.293 188.894 232.453 188.297 231.752 187.554C231.684 187.497 231.629 187.426 231.591 187.346C231.554 187.265 231.534 187.178 231.534 187.089C231.534 187 231.554 186.912 231.591 186.832C231.629 186.751 231.684 186.68 231.752 186.624C231.88 186.509 232.045 186.446 232.216 186.446C232.388 186.446 232.553 186.509 232.681 186.624C233.784 187.83 235.32 188.549 236.952 188.624C237.928 188.655 238.899 188.456 239.786 188.044C240.672 187.632 241.451 187.018 242.058 186.251C243.579 184.474 244.433 182.22 244.472 179.878C244.704 174.901 241.594 170.76 237.648 170.574C234.77 170.481 232.681 171.877 231.381 174.622C231.307 174.782 231.172 174.906 231.007 174.967C230.842 175.028 230.659 175.021 230.499 174.947C230.339 174.873 230.214 174.738 230.154 174.573C230.093 174.407 230.1 174.224 230.174 174.063C231.706 170.853 234.398 169.086 237.694 169.272C242.383 169.458 246.004 174.249 245.819 179.925C245.719 182.564 244.757 185.098 243.08 187.135C242.354 188.001 241.453 188.702 240.437 189.191C239.42 189.68 238.311 189.947 237.184 189.973Z" fill="#1A1A1A"/>
<path d="M238.716 183.926C238.344 183.786 233.748 180.53 233.748 180.53C233.655 179.553 238.437 174.715 238.437 174.715C238.56 174.591 238.727 174.522 238.901 174.522C239.075 174.522 239.242 174.591 239.366 174.715C239.489 174.838 239.558 175.005 239.558 175.18C239.558 175.354 239.489 175.522 239.366 175.645L235.141 179.925L239.087 182.716C239.162 182.763 239.227 182.825 239.278 182.898C239.328 182.971 239.363 183.054 239.381 183.141C239.398 183.228 239.397 183.318 239.379 183.405C239.36 183.492 239.324 183.574 239.273 183.646C239.206 183.731 239.121 183.799 239.025 183.847C238.929 183.896 238.823 183.922 238.716 183.926Z" fill="#1A1A1A"/>
<path d="M191.734 166.248C191.038 165.829 190.992 165.411 191.27 165.131C191.549 164.852 194.334 161.828 199.812 163.55C199.895 163.576 199.972 163.619 200.039 163.675C200.105 163.732 200.159 163.802 200.198 163.88C200.237 163.958 200.26 164.043 200.266 164.13C200.271 164.217 200.259 164.305 200.23 164.387C200.209 164.469 200.171 164.545 200.119 164.611C200.067 164.677 200.002 164.732 199.928 164.771C199.854 164.811 199.772 164.834 199.688 164.84C199.604 164.846 199.52 164.834 199.441 164.806C194.706 163.317 192.245 166.015 192.245 166.015C192.112 166.157 191.928 166.24 191.734 166.248Z" fill="#1A1A1A"/>
<path d="M199.627 189.973C197.584 188.345 195.588 185.089 195.495 184.949C195.959 183.972 200.369 183.181 200.369 183.181C200.834 181.739 202.505 175.878 202.505 167.644C202.505 167.471 202.573 167.305 202.695 167.183C202.817 167.061 202.982 166.992 203.155 166.992C203.332 166.992 203.502 167.059 203.631 167.18C203.761 167.301 203.839 167.467 203.851 167.644C203.851 177.413 201.576 183.739 201.483 183.972C201.391 184.205 197.166 185.089 197.166 185.089C197.991 186.428 198.956 187.676 200.044 188.81C200.109 188.868 200.162 188.937 200.2 189.016C200.237 189.094 200.259 189.179 200.263 189.266C200.267 189.352 200.254 189.439 200.225 189.52C200.195 189.602 200.15 189.677 200.091 189.74C199.969 189.871 199.804 189.954 199.627 189.973Z" fill="#1A1A1A"/>
<path d="M208.586 211.884C202.366 211.884 197.445 210.023 193.916 206.394C185.606 197.881 186.581 181.32 187.231 170.342C187.37 167.783 187.51 165.597 187.51 163.829C187.51 163.656 187.578 163.491 187.7 163.368C187.822 163.246 187.987 163.178 188.16 163.178C188.332 163.178 188.497 163.246 188.619 163.368C188.741 163.491 188.81 163.656 188.81 163.829C188.81 165.643 188.717 167.876 188.531 170.435C187.928 181.181 186.953 197.37 194.845 205.464C198.373 209.092 203.387 210.767 209.793 210.535C209.88 210.521 209.969 210.527 210.053 210.551C210.137 210.575 210.215 210.618 210.282 210.675C210.348 210.733 210.401 210.804 210.437 210.884C210.473 210.964 210.491 211.051 210.49 211.139C210.49 211.317 210.423 211.487 210.302 211.617C210.182 211.747 210.016 211.825 209.84 211.837L208.586 211.884Z" fill="#1A1A1A"/>
<path d="M231.427 173.505C208.401 171.83 200.555 152.432 199.348 149.082C192.384 149.78 188.763 166.015 188.717 166.155C188.707 166.245 188.678 166.331 188.631 166.408C188.584 166.485 188.52 166.551 188.444 166.6C188.369 166.649 188.283 166.68 188.194 166.692C188.104 166.704 188.013 166.695 187.928 166.667C187.762 166.623 187.62 166.515 187.533 166.367C187.446 166.219 187.421 166.042 187.463 165.876C187.603 165.131 191.456 147.733 199.812 147.733C200.509 148.431 207.379 170.435 231.473 172.156C231.621 172.2 231.749 172.292 231.839 172.417C231.929 172.543 231.975 172.694 231.969 172.848C231.964 173.002 231.908 173.151 231.81 173.269C231.712 173.388 231.577 173.471 231.427 173.505Z" fill="#1A1A1A"/>
<path d="M215.596 223.142C206.59 223.142 203.944 220.443 203.805 220.35C203.665 220.257 203.619 211.186 203.619 211.186C203.631 211.009 203.709 210.843 203.839 210.722C203.968 210.601 204.138 210.534 204.315 210.535C204.488 210.535 204.653 210.603 204.775 210.725C204.897 210.848 204.965 211.013 204.965 211.186V219.606C205.662 220.118 208.493 221.839 215.596 221.839C218.459 221.889 221.311 221.48 224.046 220.629C224.128 220.601 224.215 220.588 224.302 220.594C224.389 220.599 224.474 220.622 224.552 220.661C224.63 220.7 224.699 220.755 224.756 220.821C224.812 220.888 224.855 220.965 224.881 221.048C224.928 221.215 224.91 221.393 224.833 221.547C224.756 221.702 224.624 221.823 224.463 221.886C221.593 222.774 218.6 223.198 215.596 223.142Z" fill="#1A1A1A"/>
<path d="M224.138 238.26C223.402 238.262 222.669 238.168 221.956 237.981C217.221 236.679 213.971 231.608 212.811 229.515C211.232 231.282 206.961 235.655 203.062 235.748C202.327 235.77 201.597 235.622 200.929 235.316C200.261 235.009 199.672 234.552 199.208 233.981C197.444 231.98 196.748 229.84 197.119 227.607C197.955 222.769 203.712 219.467 203.99 219.327C204.138 219.242 204.314 219.219 204.479 219.262C204.644 219.306 204.785 219.413 204.872 219.56C204.957 219.708 204.98 219.884 204.937 220.049C204.893 220.215 204.787 220.356 204.64 220.443C204.547 220.49 199.162 223.607 198.419 227.84C198.141 229.654 198.744 231.422 200.23 233.097C200.556 233.509 200.973 233.841 201.448 234.067C201.923 234.293 202.443 234.407 202.969 234.399C207.24 234.306 212.393 227.98 212.439 227.933C213.6 228.119 217.035 235.283 222.281 236.679C224.463 237.283 226.645 236.818 228.827 235.33C231.009 233.841 232.355 232.027 232.773 229.933C232.807 229.756 232.908 229.599 233.056 229.495C233.203 229.391 233.384 229.348 233.562 229.375C233.725 229.428 233.865 229.535 233.958 229.679C234.052 229.823 234.092 229.995 234.073 230.166C233.562 232.632 232.077 234.725 229.57 236.4C227.999 237.576 226.099 238.227 224.138 238.26Z" fill="#1A1A1A"/>
<path d="M164.344 224.909C125.162 224.909 103.76 202.998 92.3864 182.948C92.3016 182.8 92.2784 182.624 92.3218 182.459C92.3652 182.294 92.4718 182.152 92.6185 182.065C92.7666 181.98 92.9421 181.956 93.1071 182C93.2722 182.043 93.4135 182.15 93.5006 182.297C106.546 205.231 132.915 230.678 184.678 221.792C184.76 221.772 184.847 221.769 184.93 221.785C185.014 221.8 185.094 221.833 185.164 221.881C185.234 221.93 185.293 221.992 185.337 222.065C185.382 222.138 185.41 222.219 185.421 222.304C185.441 222.39 185.444 222.479 185.429 222.565C185.414 222.652 185.382 222.735 185.334 222.809C185.286 222.883 185.224 222.946 185.151 222.995C185.078 223.045 184.996 223.078 184.91 223.095C178.118 224.28 171.238 224.887 164.344 224.909Z" fill="#1A1A1A"/>
<path d="M85.4692 166.62C84.0535 163.372 82.9649 159.99 82.2195 156.525L77.3914 156.432C77.219 156.432 77.0537 156.364 76.9318 156.242C76.81 156.12 76.7415 155.954 76.7415 155.781C76.7611 155.615 76.8359 155.461 76.9538 155.343C77.0717 155.225 77.2258 155.15 77.3914 155.13L82.823 155.223C83.473 155.828 84.03 159.549 86.1191 165.736C86.1557 165.903 86.1341 166.077 86.0581 166.229C85.982 166.381 85.8561 166.503 85.7013 166.574L85.4692 166.62Z" fill="#1A1A1A"/>
<path d="M170.054 272.359C142.71 269.242 77.2986 254.263 59.3788 181.925C59.3584 181.839 59.3556 181.751 59.3705 181.664C59.3853 181.577 59.4176 181.494 59.4654 181.42C59.5131 181.346 59.5753 181.283 59.6482 181.234C59.7211 181.185 59.8032 181.151 59.8895 181.134C60.0549 181.103 60.226 181.133 60.3711 181.219C60.5162 181.304 60.6255 181.439 60.6787 181.6C78.4127 253.1 143.128 267.986 170.101 271.057C170.277 271.08 170.438 271.17 170.55 271.308C170.662 271.447 170.718 271.623 170.704 271.801C170.682 271.957 170.603 272.1 170.484 272.202C170.364 272.305 170.212 272.361 170.054 272.359Z" fill="#1A1A1A"/>
<path d="M188.67 329.857C159.562 280.965 172.236 251.565 172.376 251.286C172.406 251.201 172.454 251.123 172.515 251.058C172.577 250.992 172.652 250.941 172.735 250.906C172.818 250.871 172.907 250.853 172.997 250.855C173.087 250.856 173.176 250.876 173.258 250.914C173.412 250.994 173.531 251.129 173.591 251.292C173.652 251.456 173.648 251.636 173.583 251.797C173.443 252.077 161.094 280.965 189.228 328.88C189.312 329.029 189.336 329.204 189.292 329.37C189.249 329.535 189.142 329.677 188.995 329.764L188.67 329.857Z" fill="#1A1A1A"/>
<path d="M196.655 228.119C193.498 228.119 183.471 227.328 181.985 217.001C180.499 206.674 188.856 198.765 189.227 198.44C189.357 198.322 189.527 198.261 189.701 198.27C189.875 198.279 190.039 198.357 190.156 198.486C190.273 198.616 190.334 198.786 190.325 198.961C190.316 199.135 190.239 199.299 190.109 199.416C190.016 199.509 181.892 206.953 183.285 216.815C184.91 227.793 196.934 226.863 197.491 226.816C198.048 226.77 198.141 227.049 198.187 227.375C198.2 227.553 198.145 227.729 198.033 227.867C197.921 228.006 197.76 228.096 197.584 228.119H196.655Z" fill="#1A1A1A"/>
<path d="M241.269 232.073C236.162 232.073 230.406 230.678 226.32 225.607C212.254 208.116 231.984 187.973 232.216 187.787C232.273 187.718 232.344 187.663 232.424 187.626C232.504 187.588 232.592 187.568 232.681 187.568C232.769 187.568 232.857 187.588 232.937 187.626C233.017 187.663 233.088 187.718 233.145 187.787C233.259 187.915 233.322 188.08 233.322 188.252C233.322 188.424 233.259 188.589 233.145 188.717C232.959 188.903 214.018 208.209 227.342 224.77C235.698 235.144 251.9 228.863 252.086 228.817C252.167 228.776 252.256 228.752 252.347 228.748C252.437 228.743 252.528 228.758 252.613 228.79C252.698 228.823 252.775 228.873 252.839 228.938C252.903 229.002 252.953 229.079 252.986 229.164C253.019 229.249 253.033 229.34 253.028 229.431C253.024 229.522 253 229.611 252.959 229.692C252.918 229.774 252.86 229.845 252.79 229.903C252.72 229.96 252.638 230.003 252.55 230.026C248.934 231.348 245.118 232.04 241.269 232.073Z" fill="#1A1A1A"/>
<path d="M260.674 234.632C260.025 234.306 259.932 233.888 260.117 233.608C267.777 222.165 259.421 215.931 253.339 211.372C250.183 209.046 247.676 207.185 247.954 205.045C251.482 179.041 255.196 163.038 255.521 161.643C255.104 154.711 251.854 149.222 245.865 145.268C231.706 136.01 205.43 137.918 197.77 140.755C197.723 140.802 186.024 147.268 188.624 169.83C188.637 169.916 188.633 170.003 188.612 170.087C188.591 170.171 188.553 170.25 188.502 170.32C188.45 170.389 188.384 170.447 188.31 170.491C188.235 170.535 188.153 170.563 188.067 170.574C187.896 170.589 187.726 170.54 187.589 170.437C187.452 170.334 187.358 170.184 187.324 170.016C184.585 146.431 196.702 139.825 197.212 139.546C205.151 136.615 232.077 134.661 246.608 144.151C252.968 148.338 256.403 154.246 256.821 161.689C256.775 162.015 252.922 178.204 249.254 205.231C249.115 206.581 251.529 208.395 254.129 210.302C260.257 214.908 269.588 221.885 261.232 234.353C261.169 234.442 261.086 234.515 260.989 234.564C260.891 234.612 260.783 234.636 260.674 234.632Z" fill="#1A1A1A"/>
<path d="M337.6 381.029C336.95 380.517 333.793 369.678 333.793 369.678C333.759 369.506 333.788 369.328 333.872 369.175C333.957 369.021 334.094 368.903 334.257 368.841C334.429 368.797 334.612 368.82 334.767 368.907C334.922 368.993 335.039 369.136 335.093 369.306L338.203 380.191C338.232 380.271 338.243 380.355 338.237 380.439C338.231 380.523 338.208 380.605 338.169 380.679C338.129 380.754 338.075 380.819 338.009 380.871C337.943 380.924 337.867 380.961 337.785 380.982L337.6 381.029Z" fill="#1A1A1A"/>
<path d="M311.927 372.376C311.277 371.865 309.327 365.957 305.845 357.257L304.406 353.629C295.168 331.16 276.459 291.804 254.964 280.965C254.81 280.885 254.691 280.75 254.631 280.587C254.57 280.423 254.574 280.243 254.639 280.081C254.679 280.005 254.733 279.936 254.798 279.881C254.864 279.825 254.94 279.783 255.022 279.757C255.104 279.731 255.191 279.722 255.276 279.73C255.362 279.737 255.445 279.762 255.521 279.802C277.434 290.781 296.328 330.462 305.613 353.117L307.099 356.746C309.977 364.049 311.834 369.399 312.391 370.981L336.253 368.655C335.928 365.957 335.603 363.351 335.278 360.932C335.139 359.909 334.953 358.886 334.814 357.862C322.512 276.127 277.666 242.68 251.993 230.026C251.917 229.987 251.849 229.933 251.793 229.867C251.737 229.801 251.695 229.725 251.67 229.643C251.644 229.561 251.634 229.474 251.642 229.388C251.65 229.302 251.674 229.219 251.715 229.142C251.794 228.988 251.929 228.868 252.093 228.808C252.256 228.748 252.436 228.751 252.597 228.817C278.455 241.61 323.719 275.336 336.114 357.63C336.3 358.653 336.439 359.723 336.578 360.746C336.95 363.398 337.275 366.236 337.6 369.166C337.042 369.911 312.02 372.376 312.02 372.376H311.927Z" fill="#1A1A1A"/>
<path d="M164.947 337.859C164.205 337.068 164.39 336.696 164.715 336.556C181.428 330.834 188.392 328.601 188.484 328.555C189.274 328.88 198.187 338.929 254.036 335.672C254.212 335.672 254.383 335.739 254.512 335.86C254.642 335.981 254.72 336.147 254.732 336.323C254.722 336.498 254.652 336.663 254.533 336.791C254.415 336.918 254.255 337 254.082 337.021C202.365 339.999 190.481 331.811 188.484 329.95C186.813 330.509 179.664 332.835 165.133 337.812L164.947 337.859Z" fill="#1A1A1A"/>
<path d="M103.203 359.769C102.46 358.979 102.646 358.606 102.971 358.467L108.821 356.28L122.005 351.489L128.551 349.116L148.142 342.231C148.308 342.195 148.482 342.216 148.634 342.293C148.786 342.369 148.907 342.495 148.978 342.65C149.007 342.733 149.019 342.82 149.013 342.907C149.008 342.994 148.985 343.079 148.946 343.158C148.907 343.236 148.853 343.305 148.786 343.362C148.72 343.419 148.643 343.461 148.56 343.487C140.807 346.186 137.696 347.256 129.015 350.372L122.423 352.745C118.013 354.327 113.602 355.908 109.285 357.536C107.289 358.234 105.339 358.979 103.435 359.723L103.203 359.769Z" fill="#1A1A1A"/>
<path d="M63.6499 393.17C63.1856 393.077 62.9535 392.752 62.9999 392.426C65.5997 373.586 81.8946 367.026 96.3325 361.212L102.925 358.467C103.091 358.404 103.276 358.408 103.44 358.477C103.604 358.546 103.735 358.676 103.807 358.839C103.87 358.994 103.872 359.167 103.812 359.323C103.751 359.479 103.633 359.605 103.482 359.676C101.3 360.607 99.0716 361.537 96.7968 362.421C82.0339 368.376 66.7603 374.516 64.2998 392.566C64.288 392.73 64.2144 392.884 64.0938 392.996C63.9731 393.109 63.8145 393.171 63.6499 393.17Z" fill="#1A1A1A"/>
<path d="M109.424 392.659C105.927 385.599 103.695 377.978 102.832 370.143C102.089 363.444 102.507 359.211 102.553 359.025C102.559 358.939 102.582 358.856 102.62 358.779C102.659 358.702 102.712 358.634 102.776 358.578C102.841 358.521 102.916 358.479 102.997 358.452C103.079 358.425 103.164 358.414 103.25 358.42C103.426 358.444 103.587 358.534 103.699 358.672C103.812 358.81 103.867 358.987 103.853 359.165C103.618 362.764 103.727 366.378 104.178 369.957C105.036 377.465 107.007 384.803 110.028 391.728C110.066 391.807 110.089 391.893 110.093 391.981C110.098 392.069 110.084 392.157 110.054 392.24C110.024 392.322 109.977 392.398 109.916 392.462C109.856 392.526 109.783 392.577 109.703 392.612L109.424 392.659Z" fill="#1A1A1A"/>
<path d="M270.656 392.891C270.483 392.891 270.318 392.823 270.196 392.701C270.074 392.579 270.006 392.413 270.006 392.24C270.006 378.331 267.731 365.491 263.321 354.094C262.764 352.699 262.206 351.396 261.649 350.14C257.61 341.301 253.618 336.835 253.572 336.789C251.668 310.087 254.546 280.593 254.593 280.314C254.599 280.228 254.621 280.145 254.66 280.068C254.698 279.991 254.751 279.923 254.816 279.867C254.88 279.81 254.955 279.768 255.037 279.741C255.118 279.714 255.204 279.703 255.289 279.709C255.466 279.733 255.627 279.823 255.739 279.961C255.851 280.1 255.906 280.276 255.893 280.454C255.893 280.733 253.014 309.947 254.686 336.091C255.521 337.021 259.142 341.441 262.856 349.628C263.413 350.838 263.971 352.187 264.528 353.629C269.031 365.166 271.306 378.145 271.306 392.24C271.306 392.413 271.237 392.579 271.115 392.701C270.993 392.823 270.828 392.891 270.656 392.891Z" fill="#1A1A1A"/>
<path d="M210.443 266.405C209.421 266.385 208.413 266.152 207.486 265.719C206.558 265.287 205.731 264.664 205.058 263.893C198.373 256.542 199.394 235.19 199.441 234.306C199.441 234.133 199.509 233.968 199.631 233.846C199.753 233.723 199.918 233.655 200.091 233.655C200.267 233.667 200.433 233.745 200.553 233.875C200.674 234.005 200.741 234.175 200.741 234.353C200.741 234.585 199.719 256.031 206.033 263.009C206.542 263.623 207.171 264.126 207.882 264.486C208.592 264.846 209.37 265.056 210.165 265.102C221.214 265.102 226.97 236.911 227.017 236.632C227.026 236.542 227.055 236.456 227.103 236.379C227.15 236.302 227.214 236.236 227.289 236.187C227.365 236.138 227.451 236.106 227.54 236.095C227.63 236.083 227.72 236.092 227.806 236.12C227.974 236.164 228.12 236.27 228.215 236.416C228.309 236.563 228.346 236.739 228.317 236.911C228.085 238.121 222.282 266.405 210.443 266.405Z" fill="#1A1A1A"/>
<path d="M212.95 229.003C212.3 228.491 210.397 224.909 210.165 222.49C210.158 222.404 210.169 222.318 210.196 222.237C210.223 222.156 210.266 222.08 210.322 222.015C210.378 221.951 210.446 221.898 210.523 221.859C210.599 221.821 210.683 221.798 210.768 221.792C210.854 221.772 210.944 221.77 211.031 221.788C211.118 221.806 211.199 221.843 211.27 221.897C211.341 221.95 211.4 222.018 211.441 222.097C211.483 222.175 211.507 222.262 211.511 222.351C211.697 224.537 213.507 227.979 213.554 228.026C213.594 228.102 213.619 228.186 213.626 228.272C213.634 228.357 213.625 228.444 213.599 228.526C213.573 228.608 213.531 228.685 213.475 228.751C213.42 228.816 213.352 228.871 213.275 228.91L212.95 229.003Z" fill="#1A1A1A"/>
<path d="M221.864 176.389C219.45 173.226 217.593 171.877 216.014 172.017C213.461 172.249 211.836 175.924 211.836 175.971C211.774 176.131 211.651 176.259 211.495 176.329C211.338 176.399 211.161 176.404 211.001 176.343C210.916 176.312 210.839 176.265 210.773 176.203C210.708 176.141 210.656 176.066 210.621 175.983C210.586 175.9 210.569 175.81 210.57 175.72C210.572 175.63 210.592 175.541 210.629 175.459C210.722 175.273 212.533 171.04 215.875 170.714C217.964 170.528 220.285 172.063 222.421 175.366C222.471 175.435 222.507 175.513 222.525 175.597C222.543 175.68 222.543 175.766 222.526 175.85C222.508 175.933 222.473 176.012 222.423 176.081C222.373 176.15 222.309 176.207 222.235 176.25C222.186 176.297 222.127 176.333 222.064 176.357C222 176.381 221.932 176.392 221.864 176.389Z" fill="#1A1A1A"/>
<path d="M198.651 175.459C197.63 173.831 196.237 170.714 194.52 170.574C192.802 170.435 192.152 171.784 190.899 174.249C190.819 174.404 190.681 174.52 190.515 174.572C190.35 174.624 190.17 174.609 190.016 174.529C189.863 174.448 189.747 174.31 189.695 174.144C189.642 173.979 189.658 173.799 189.738 173.645C191.316 170.574 192.895 169.132 194.659 169.272C197.491 169.504 199.069 174.063 199.255 174.575C199.301 174.742 199.284 174.92 199.207 175.074C199.13 175.229 198.998 175.35 198.837 175.412L198.651 175.459Z" fill="#1A1A1A"/>
<path d="M201.159 393.17C201.063 393.165 200.969 393.14 200.883 393.096C200.798 393.053 200.722 392.992 200.661 392.917C200.6 392.843 200.555 392.757 200.529 392.665C200.503 392.572 200.496 392.475 200.509 392.38C202.087 384.006 203.341 379.215 203.341 379.168C203.384 379.002 203.492 378.86 203.64 378.773C203.787 378.685 203.964 378.66 204.13 378.703C204.302 378.757 204.448 378.871 204.542 379.025C204.636 379.179 204.671 379.362 204.64 379.54C204.594 379.587 203.387 384.285 201.809 392.612C201.786 392.768 201.708 392.911 201.588 393.014C201.469 393.116 201.316 393.172 201.159 393.17Z" fill="#1A1A1A"/>
<path d="M360.208 393.17H346.513C346.41 393.198 346.302 393.201 346.197 393.18C346.093 393.159 345.994 393.114 345.91 393.049C345.825 392.984 345.757 392.9 345.71 392.804C345.663 392.708 345.638 392.603 345.638 392.496C345.638 392.389 345.663 392.284 345.71 392.188C345.757 392.092 345.825 392.008 345.91 391.943C345.994 391.878 346.093 391.833 346.197 391.812C346.302 391.791 346.41 391.794 346.513 391.821H360.208C360.384 391.833 360.55 391.912 360.671 392.042C360.791 392.171 360.858 392.342 360.858 392.519C360.858 392.605 360.841 392.689 360.808 392.768C360.776 392.847 360.728 392.919 360.668 392.98C360.607 393.04 360.536 393.088 360.457 393.121C360.378 393.154 360.293 393.17 360.208 393.17Z" fill="#1A1A1A"/>
<path d="M300.97 393.171H38.1629C37.9941 393.16 37.835 393.088 37.7154 392.968C37.5958 392.848 37.5238 392.688 37.5129 392.519C37.5125 392.342 37.5795 392.171 37.7002 392.042C37.8209 391.912 37.9863 391.833 38.1629 391.822H300.97C301.147 391.833 301.312 391.912 301.433 392.042C301.554 392.171 301.621 392.342 301.62 392.519C301.61 392.688 301.538 392.848 301.418 392.968C301.298 393.088 301.139 393.16 300.97 393.171Z" fill="#1A1A1A"/>
<path d="M325.529 409.732C324.936 409.734 324.344 409.671 323.765 409.545C319.354 408.708 317.544 397.497 317.033 393.543C309.559 399.451 304.777 398.706 302.085 396.939C299.392 395.171 299.624 394.147 299.81 393.264C300.181 391.542 302.41 390.286 306.031 389.728C311.369 388.937 312.251 384.843 312.251 384.797L312.437 371.585C312.467 371.416 312.551 371.26 312.676 371.143C312.802 371.025 312.963 370.952 313.134 370.934C313.219 370.934 313.303 370.951 313.382 370.984C313.461 371.016 313.533 371.064 313.593 371.125C313.653 371.185 313.701 371.257 313.734 371.336C313.767 371.415 313.783 371.5 313.783 371.585L313.551 384.937C313.505 385.262 312.437 390.1 306.263 391.031C302.735 391.589 301.295 392.705 301.11 393.543C300.924 394.38 301.574 395.031 302.781 395.822C306.309 398.102 311.277 396.706 317.126 391.775C318.797 398.102 320.933 407.685 324.043 408.243C325.575 408.522 326.782 408.429 327.525 407.871C327.727 407.739 327.901 407.569 328.037 407.369C328.172 407.169 328.267 406.944 328.314 406.708C329.382 406.289 332.26 408.243 334.628 407.685C336.996 407.126 338.295 404.614 338.342 404.614C339.503 404.568 341.035 406.987 342.938 406.429C343.722 406.229 344.42 405.782 344.93 405.154C345.44 404.525 345.735 403.749 345.77 402.94C346.28 394.613 345.352 381.959 342.938 381.587C338.899 380.982 326.457 382.099 321.536 384.89C321.465 384.939 321.384 384.972 321.299 384.987C321.213 385.001 321.126 384.998 321.042 384.975C320.959 384.953 320.881 384.914 320.814 384.859C320.747 384.804 320.692 384.735 320.654 384.657C320.567 384.502 320.542 384.319 320.586 384.146C320.629 383.973 320.736 383.823 320.886 383.727C326.132 380.75 338.853 379.633 343.124 380.285C348.137 381.075 347.116 402.8 347.07 403.033C347.013 404.1 346.624 405.122 345.958 405.956C345.292 406.79 344.382 407.395 343.356 407.685C341.36 408.289 339.781 406.987 338.945 406.056C338.021 407.493 336.599 408.537 334.953 408.987C332.771 409.452 330.45 408.429 329.336 407.778C329.078 408.231 328.731 408.627 328.314 408.941C327.488 409.484 326.516 409.76 325.529 409.732Z" fill="#1A1A1A"/>
<path d="M89.0438 173.552C82.0801 169.132 78.0877 163.364 76.8342 156.246C73.5845 138.197 88.6724 117.868 89.3223 116.984C89.4331 116.848 89.5932 116.762 89.7673 116.745C89.9415 116.727 90.1154 116.78 90.2508 116.891C90.3862 117.002 90.4721 117.162 90.4895 117.337C90.5069 117.511 90.4545 117.685 90.3437 117.821C90.2044 118.007 75.0237 138.522 78.1341 156.014C79.2947 162.759 83.1015 168.248 89.4152 172.296C89.5493 172.405 89.6412 172.557 89.6751 172.727C89.709 172.897 89.6828 173.073 89.6009 173.226C89.5411 173.321 89.4592 173.401 89.3622 173.457C89.2652 173.514 89.1559 173.546 89.0438 173.552Z" fill="#1A1A1A"/>
<path d="M35.981 150.199C33.968 150.184 31.9616 149.966 29.9923 149.548C29.8527 149.492 29.7367 149.389 29.6642 149.257C29.5916 149.125 29.5669 148.972 29.5943 148.824C29.6216 148.676 29.6994 148.542 29.8143 148.445C29.9292 148.348 30.0741 148.294 30.2244 148.292C38.5344 149.92 45.7765 148.059 51.8117 142.756C51.945 142.647 52.1134 142.592 52.2848 142.601C52.4561 142.61 52.6183 142.681 52.7402 142.802C52.7963 142.869 52.8385 142.946 52.8643 143.029C52.89 143.113 52.8989 143.2 52.8902 143.287C52.8815 143.374 52.8556 143.458 52.8139 143.535C52.7721 143.611 52.7155 143.678 52.6473 143.733C47.8192 148.012 42.2483 150.199 35.981 150.199Z" fill="#1A1A1A"/>
<path d="M85.4692 174.668C83.2041 174.602 80.9502 174.322 78.7377 173.83C72.7026 172.574 65.0426 170.109 57.1505 166.899C49.2584 163.689 42.0162 160.107 36.8631 156.804C31.71 153.501 28.7853 150.478 29.4816 148.663C29.4973 148.559 29.5364 148.459 29.596 148.372C29.6556 148.285 29.7342 148.213 29.8258 148.161C29.9174 148.108 30.0196 148.078 30.1248 148.071C30.23 148.064 30.3354 148.081 30.433 148.121C30.5307 148.161 30.618 148.222 30.6884 148.301C30.7588 148.379 30.8105 148.473 30.8396 148.574C30.8687 148.676 30.8744 148.783 30.8563 148.887C30.8382 148.991 30.7967 149.089 30.7351 149.175C30.4565 149.826 31.6171 151.92 37.5594 155.688C42.6661 158.944 49.8154 162.48 57.6611 165.69C65.5068 168.899 73.074 171.318 79.0163 172.528C85.887 173.97 88.1618 173.272 88.4404 172.621C88.5027 172.461 88.6254 172.332 88.7818 172.263C88.9383 172.193 89.1159 172.188 89.276 172.249C89.4389 172.321 89.5682 172.452 89.6372 172.617C89.7063 172.781 89.71 172.966 89.6474 173.133C89.2451 174.156 87.8523 174.668 85.4692 174.668Z" fill="#1A1A1A"/>
<path d="M49.5369 167.039C44.6602 164.944 39.9161 162.551 35.331 159.875C35.1891 159.772 35.088 159.622 35.0455 159.452C35.003 159.282 35.0219 159.102 35.0989 158.945C35.1947 158.794 35.3443 158.686 35.5169 158.643C35.6896 158.6 35.8723 158.625 36.0274 158.712C40.4801 161.34 45.0841 163.701 49.8154 165.783C49.97 165.863 50.0891 165.998 50.1492 166.162C50.2094 166.325 50.2062 166.506 50.1404 166.667C50.0787 166.774 49.9912 166.865 49.8858 166.93C49.7804 166.995 49.6605 167.032 49.5369 167.039Z" fill="#1A1A1A"/>
<path d="M90.1581 178.994C88.0395 178.948 85.928 178.73 83.8444 178.343C83.7587 178.332 83.6761 178.303 83.6015 178.259C83.5269 178.216 83.4617 178.157 83.4098 178.088C83.358 178.019 83.3204 177.94 83.2994 177.856C83.2783 177.772 83.2742 177.684 83.2874 177.599C83.3213 177.421 83.4225 177.264 83.5697 177.16C83.7168 177.056 83.8985 177.013 84.0766 177.04C91.2723 178.25 94.3363 177.413 94.8006 176.296C95.2648 175.18 95.2184 172.947 85.8407 166.946C85.7017 166.851 85.6047 166.706 85.5701 166.541C85.5355 166.376 85.5659 166.204 85.655 166.062C85.7508 165.911 85.9004 165.803 86.073 165.76C86.2457 165.717 86.4283 165.742 86.5835 165.829C93.8721 170.528 97.0753 174.203 96.0076 176.761C95.4505 178.25 93.4543 178.994 90.1581 178.994Z" fill="#1A1A1A"/>
<path d="M86.212 167.039L79.7126 163.317C79.636 163.278 79.5679 163.224 79.5124 163.158C79.4568 163.092 79.4149 163.016 79.3889 162.934C79.363 162.851 79.3537 162.765 79.3614 162.679C79.3692 162.593 79.3938 162.51 79.434 162.433C79.5215 162.287 79.6595 162.177 79.8221 162.126C79.9847 162.074 80.1604 162.085 80.3161 162.154C82.5909 163.41 84.68 164.666 86.5834 165.829C86.7257 165.932 86.8239 166.086 86.8583 166.258C86.8927 166.431 86.8609 166.61 86.7691 166.76C86.707 166.849 86.6234 166.922 86.5261 166.971C86.4287 167.019 86.3207 167.043 86.212 167.039Z" fill="#1A1A1A"/>
<path d="M91.5507 186.763C90.9472 186.577 90.8079 186.205 90.9472 185.833L94.754 176.389C94.8257 176.226 94.9571 176.096 95.1211 176.027C95.2852 175.958 95.4694 175.954 95.6361 176.017C95.7167 176.052 95.7893 176.103 95.8497 176.167C95.91 176.231 95.9568 176.307 95.9872 176.389C96.0176 176.472 96.0309 176.56 96.0264 176.648C96.0219 176.736 95.9997 176.822 95.961 176.901L92.1542 186.344C92.1025 186.464 92.0186 186.566 91.912 186.64C91.8054 186.714 91.6803 186.756 91.5507 186.763Z" fill="#1A1A1A"/>
<path d="M25.1175 152.246C22.7035 149.966 21.9607 148.245 22.5178 146.896C24.2355 142.663 36.5843 145.361 43.7801 147.361C43.8656 147.377 43.9469 147.41 44.0183 147.46C44.0896 147.51 44.1494 147.575 44.1934 147.65C44.2375 147.725 44.2649 147.809 44.2737 147.895C44.2825 147.982 44.2724 148.069 44.2443 148.152C44.2232 148.239 44.1842 148.322 44.1298 148.393C44.0754 148.465 44.0068 148.524 43.9283 148.568C43.8497 148.612 43.763 148.639 43.6736 148.647C43.5842 148.656 43.494 148.645 43.4087 148.617C30.0385 144.896 24.4212 145.64 23.7248 147.408C23.3998 148.198 24.0498 149.501 25.6282 151.129C25.687 151.193 25.7326 151.268 25.7622 151.349C25.7917 151.431 25.8047 151.517 25.8004 151.604C25.7961 151.691 25.7745 151.776 25.737 151.854C25.6994 151.932 25.6467 152.002 25.5818 152.06C25.4496 152.168 25.2876 152.233 25.1175 152.246Z" fill="#1A1A1A"/>
<path d="M86.2119 188.531C78.5055 188.531 64.7639 184.577 52.1365 179.46C42.4338 175.506 33.6133 171.04 27.346 166.853C21.0787 162.666 17.6433 158.851 18.6182 156.479L22.5179 146.896C22.5801 146.736 22.7029 146.607 22.8593 146.538C23.0158 146.468 23.1934 146.463 23.3535 146.524C23.5164 146.596 23.6457 146.727 23.7147 146.892C23.7838 147.056 23.7874 147.241 23.7249 147.408L19.8253 156.944C19.361 158.2 21.218 161.177 28.0423 165.736C34.8667 170.295 42.9909 174.343 52.6008 178.25C73.5845 186.763 89.6473 189.089 90.9472 185.833C91.0095 185.673 91.1322 185.544 91.2886 185.475C91.4451 185.405 91.6227 185.4 91.7828 185.461C91.9457 185.533 92.075 185.664 92.1441 185.829C92.2131 185.993 92.2168 186.178 92.1542 186.345C91.5507 187.88 89.3688 188.531 86.2119 188.531Z" fill="#1A1A1A"/>
<path d="M50.2334 78.7447C48.8871 77.3026 46.1016 73.3019 44.7089 70.9759C42.2948 66.9287 34.1706 52.3681 31.2923 36.9236C30.7307 34.138 30.4815 31.2982 30.5495 28.4571C30.7816 23.0143 32.7314 18.2228 36.1204 15.0129C38.1409 13.0812 40.6833 11.7868 43.4317 11.2905C46.18 10.7943 49.0134 11.1181 51.5797 12.2217C56.2685 14.2221 58.9147 17.4319 60.9109 20.3161C60.9597 20.3864 60.9942 20.4656 61.0124 20.5492C61.0307 20.6328 61.0323 20.7192 61.0172 20.8034C61.0021 20.8877 60.9706 20.9681 60.9245 21.0401C60.8784 21.1122 60.8186 21.1744 60.7485 21.2233C60.6784 21.2722 60.5993 21.3067 60.5159 21.325C60.4324 21.3432 60.3462 21.3449 60.2622 21.3297C60.1781 21.3146 60.0978 21.2831 60.0259 21.2369C59.9541 21.1907 59.892 21.1307 59.8432 21.0605C57.1506 17.1993 54.5972 14.9199 51.2547 13.5243C46.1945 11.3844 40.8092 12.4078 37.0489 15.9898C33.2885 19.5718 32.0815 23.433 31.8958 28.5036C31.8345 31.2499 32.0679 33.9948 32.5921 36.691C35.424 51.9029 43.4554 66.2775 45.8695 70.3247C47.2158 72.6041 49.9548 76.5583 50.7905 77.7213C50.8441 77.7908 50.8832 77.8705 50.9053 77.9556C50.9274 78.0407 50.932 78.1293 50.919 78.2163C50.906 78.3032 50.8756 78.3866 50.8296 78.4614C50.7835 78.5363 50.7228 78.601 50.6512 78.6517C50.5251 78.7259 50.3789 78.7584 50.2334 78.7447ZM50.0012 59.9973C44.7553 50.4608 41.9698 42.6921 40.5771 35.2024C40.1585 33.1044 39.9563 30.9687 39.9736 28.8292C40.1129 25.8985 41.0413 23.3399 42.6198 21.8513C43.3203 21.1712 44.2116 20.722 45.1742 20.564C46.1368 20.406 47.1245 20.5468 48.005 20.9674C50.9297 22.1769 53.1581 25.4333 54.7829 28.1314L56.7327 31.3413L55.6186 32.0391L53.6688 28.8292C52.1368 26.2707 50.0477 23.2469 47.5872 22.1769C46.0087 21.5722 44.616 21.8048 43.5483 22.8282C42.4805 23.8516 41.4127 26.2707 41.3199 28.8757C41.2621 30.9221 41.4491 32.968 41.877 34.9698C43.2233 42.3199 46.0088 49.9956 50.5583 59.0204C50.6416 59.1814 50.6591 59.3685 50.6071 59.5422C50.5551 59.7158 50.4377 59.8624 50.2798 59.9508L50.0012 59.9973Z" fill="#1A1A1A"/>
<path d="M123.723 109.076C122.98 108.192 123.212 107.82 123.583 107.773C126.044 107.308 130.826 106.331 133.054 105.726C137.557 104.517 153.295 99.8182 165.922 90.84C168.184 89.3062 170.27 87.5277 172.143 85.5367C175.532 81.7221 177.296 77.2563 177.157 72.9299C177.055 70.3904 176.214 67.9362 174.738 65.8697C173.261 63.8032 171.214 62.2148 168.847 61.3C164.483 59.6253 159.655 60.044 156.359 60.6953C156.181 60.7226 155.999 60.6797 155.852 60.5756C155.705 60.4715 155.604 60.3143 155.57 60.137C155.557 60.0514 155.561 59.964 155.582 59.88C155.603 59.7959 155.64 59.7169 155.692 59.6476C155.744 59.5783 155.809 59.52 155.884 59.4763C155.959 59.4325 156.041 59.4041 156.127 59.3927C159.609 58.6949 164.669 58.2763 169.126 59.9975C174.743 62.2304 178.225 67.115 178.457 72.8834C178.643 77.5354 176.739 82.3269 173.118 86.4206C171.174 88.4772 169.028 90.3318 166.712 91.9564C153.899 101.028 137.975 105.773 133.379 107.029C131.104 107.634 126.323 108.61 123.816 109.076H123.723ZM137 95.8641C136.257 95.0732 136.397 94.7011 136.768 94.5615C146.796 91.1191 154.548 87.351 160.491 83.1642C162.164 82.0014 163.718 80.677 165.133 79.2101C166.851 77.2563 167.779 75.1163 167.733 73.3021C167.706 72.5784 167.461 71.8798 167.03 71.2985C166.599 70.7171 166.003 70.2803 165.319 70.0457C162.766 69.0688 159.145 69.7666 156.313 70.5109C155.013 70.8365 151.902 71.4878 151.763 71.4878C151.674 71.5236 151.578 71.539 151.482 71.533C151.386 71.5271 151.292 71.4999 151.208 71.4534C151.124 71.4068 151.051 71.3422 150.995 71.2641C150.939 71.186 150.9 71.0963 150.883 71.0016C150.865 70.9069 150.869 70.8095 150.894 70.7163C150.918 70.6232 150.963 70.5367 151.025 70.4631C151.087 70.3894 151.165 70.3305 151.252 70.2905C151.34 70.2505 151.435 70.2305 151.531 70.2318L155.988 69.2549C159.005 68.4641 162.858 67.6732 165.737 68.7897C167.779 69.627 168.986 71.2087 169.033 73.2556C169.079 75.3024 168.058 77.9075 166.108 80.0939C164.638 81.6469 163.003 83.0352 161.234 84.2342C155.198 88.514 147.353 92.3286 137.186 95.8176L137 95.8641Z" fill="#1A1A1A"/>
<path d="M54.7363 92.0493C52.5856 88.4577 51.0627 84.5246 50.2331 80.4194C48.7476 73.1623 48.6083 64.9749 49.7689 56.0897C50.9309 47.7703 52.9216 39.5886 55.7112 31.6669C57.0111 27.8988 58.4502 24.1307 60.0751 20.4092L60.4465 19.4323C60.8179 18.5484 61.2821 17.525 61.5606 16.9202C61.5956 16.8394 61.6466 16.7666 61.7104 16.7061C61.7743 16.6457 61.8497 16.5988 61.9322 16.5684C62.0146 16.5379 62.1024 16.5245 62.1901 16.5291C62.2779 16.5336 62.3638 16.5558 62.4427 16.5946C62.5973 16.6746 62.7163 16.8097 62.7765 16.9733C62.8366 17.1368 62.8335 17.3171 62.7677 17.4784C62.4891 18.0832 62.0249 19.1066 61.6999 19.9905L61.2821 20.9209C59.7037 24.6424 58.2645 28.364 56.9646 32.0856C54.2233 39.923 52.2488 48.0089 51.0688 56.2292C49.9546 64.9749 50.0939 73.0228 51.533 80.1403C52.3337 83.9464 53.6128 87.6353 55.3398 91.1189C55.4094 91.2749 55.4195 91.451 55.3681 91.6139C55.3168 91.7768 55.2076 91.9152 55.0613 92.0028L54.7363 92.0493Z" fill="#1A1A1A"/>
<path d="M64.5782 105.726C61.4298 102.907 58.7223 99.6295 56.5468 96.0035C56.455 95.8535 56.4231 95.6743 56.4576 95.5018C56.492 95.3293 56.5902 95.1762 56.7325 95.0731C56.8876 94.9856 57.0703 94.961 57.2429 95.0042C57.4156 95.0475 57.5652 95.1554 57.661 95.3057C59.7266 98.6879 62.2064 101.798 65.0425 104.563C65.1567 104.691 65.2198 104.857 65.2198 105.028C65.2198 105.2 65.1567 105.366 65.0425 105.493C64.9207 105.624 64.7559 105.707 64.5782 105.726Z" fill="#1A1A1A"/>
<path d="M96.2861 118.566C93.6864 118.562 91.092 118.329 88.5332 117.868C88.3563 117.834 88.1995 117.732 88.0956 117.585C87.9917 117.437 87.9489 117.255 87.9762 117.077C88.0201 116.908 88.1255 116.762 88.2716 116.668C88.4177 116.573 88.5938 116.536 88.7654 116.565C100.325 118.659 111.606 115.96 122.237 108.471C128.226 104.284 133.843 98.5622 138.996 91.4447C143.861 84.6648 148.015 77.4003 151.392 69.7666C153.063 66.2311 154.595 62.5095 155.988 58.7414C156.12 58.3146 156.275 57.8953 156.452 57.4854L157.055 55.8107C157.126 55.6556 157.247 55.5294 157.399 55.4532C157.551 55.377 157.725 55.3554 157.891 55.392C157.974 55.4183 158.051 55.461 158.118 55.5177C158.184 55.5743 158.238 55.6438 158.277 55.7219C158.316 55.8001 158.339 55.8852 158.345 55.9724C158.35 56.0596 158.338 56.147 158.309 56.2294C158.077 56.8806 157.891 57.3923 157.659 57.9506L157.195 59.2066C155.802 62.9747 154.27 66.7428 152.599 70.3248C149.175 78.0364 144.975 85.378 140.064 92.2355C134.818 99.446 129.062 105.261 123.026 109.541C114.438 115.542 105.478 118.566 96.2861 118.566Z" fill="#1A1A1A"/>
<path d="M161.094 48.6932C150.463 48.6932 129.711 42.5526 110.678 34.7838C105.339 32.5974 100.093 30.3179 95.2183 27.992C95.1377 27.9569 95.065 27.9059 95.0046 27.8419C94.9443 27.7779 94.8975 27.7023 94.8672 27.6197C94.8368 27.5371 94.8234 27.4491 94.8279 27.3612C94.8324 27.2733 94.8547 27.1872 94.8933 27.1081C94.9325 27.0313 94.9866 26.9632 95.0523 26.9075C95.118 26.8518 95.1941 26.8098 95.2761 26.7838C95.3582 26.7579 95.4446 26.7485 95.5303 26.7562C95.616 26.764 95.6993 26.7887 95.7754 26.829C100.65 29.1084 105.849 31.3879 111.188 33.5743C141.828 46.0416 165.18 49.9492 166.897 45.6694C168.615 41.3896 149.21 27.8989 118.523 15.4317C87.8368 2.96445 64.5318 -0.94319 62.7677 3.33661C62.3499 4.45308 63.4177 6.31386 65.7853 8.63984C65.8642 8.69249 65.9306 8.76179 65.9799 8.84288C66.0293 8.92397 66.0603 9.01489 66.0709 9.10927C66.0814 9.20365 66.0713 9.2992 66.0411 9.38922C66.0109 9.47925 65.9615 9.56158 65.8962 9.63043C65.8309 9.69928 65.7514 9.753 65.6632 9.78781C65.575 9.82262 65.4803 9.83768 65.3857 9.83194C65.2911 9.82621 65.1989 9.79981 65.1156 9.7546C65.0322 9.70939 64.9597 9.64647 64.9032 9.57023C61.9785 6.77906 60.8643 4.54612 61.5607 2.82489C64.2533 -3.8274 93.1756 3.70877 118.987 14.2222C144.799 24.7356 170.843 39.4823 168.104 46.1346C167.408 47.9023 164.901 48.6932 161.094 48.6932Z" fill="#1A1A1A"/>
<path d="M157.891 56.741C154.316 56.741 149.86 56.0432 145.914 55.2059C135.19 53.0195 121.494 48.6466 107.381 42.8782C81.5695 32.4113 55.5719 17.618 58.2645 10.9192C58.3444 10.7644 58.4792 10.645 58.6425 10.5848C58.8057 10.5245 58.9855 10.5277 59.1466 10.5936C59.3061 10.656 59.4346 10.779 59.5041 10.9357C59.5736 11.0925 59.5786 11.2705 59.518 11.4309C57.7539 15.7107 77.2056 29.2014 107.892 41.6687C121.912 47.3906 135.515 51.7169 146.192 53.9498C161.048 57.0201 163.276 54.5546 163.601 53.7638C163.632 53.6789 163.679 53.6013 163.741 53.5359C163.803 53.4705 163.878 53.4186 163.961 53.3836C164.044 53.3486 164.133 53.3313 164.223 53.3327C164.313 53.334 164.401 53.3541 164.483 53.3916C164.643 53.454 164.771 53.577 164.841 53.7338C164.91 53.8906 164.915 54.0685 164.855 54.229C164.112 56.0897 161.373 56.741 157.891 56.741Z" fill="#1A1A1A"/>
<path d="M159.609 44.925C157.195 44.925 153.295 44.4133 146.981 42.7851C137.371 40.3661 125.069 36.1794 112.21 30.9692C92.7113 23.0609 64.5318 9.29109 66.6673 3.94134C67.0851 3.01095 68.2457 2.49924 70.242 2.45272C70.325 2.4463 70.4085 2.45718 70.4872 2.48468C70.5659 2.51219 70.638 2.55571 70.6991 2.61252C70.7601 2.66933 70.8088 2.73819 70.842 2.81477C70.8752 2.89135 70.8922 2.97399 70.8919 3.05747C70.8982 3.14305 70.8876 3.22903 70.8607 3.31047C70.8337 3.39192 70.791 3.46723 70.7349 3.53207C70.6788 3.59691 70.6105 3.65001 70.5339 3.68832C70.4573 3.72662 70.3738 3.74937 70.2884 3.75527C68.2922 3.84831 67.9672 4.3135 67.9208 4.45306C66.853 7.01163 83.4265 17.8507 112.72 29.7597C125.487 34.9233 137.789 39.1101 147.306 41.5291C158.541 44.3668 162.116 43.7155 162.441 42.8782C162.766 42.0408 162.858 41.4361 157.473 37.6215C157.332 37.5166 157.237 37.3597 157.211 37.1852C157.185 37.0107 157.229 36.833 157.334 36.6911C157.439 36.5492 157.595 36.4548 157.769 36.4286C157.943 36.4024 158.121 36.4467 158.262 36.5515C162.58 39.6218 164.298 41.8082 163.694 43.3899C163.508 43.8551 163.044 44.925 159.609 44.925Z" fill="#1A1A1A"/>
<path d="M58.9144 11.8495C58.3108 11.6635 58.1251 11.2913 58.2644 10.9191L61.5605 2.82475C61.5955 2.74398 61.6465 2.67116 61.7103 2.61068C61.7742 2.55021 61.8496 2.50333 61.9321 2.4729C62.0145 2.44246 62.1023 2.42909 62.19 2.43359C62.2778 2.4381 62.3637 2.46038 62.4426 2.49911C62.5937 2.57016 62.7117 2.69675 62.7722 2.85264C62.8327 3.00853 62.8311 3.18177 62.7676 3.33646L59.5179 11.4309C59.4711 11.5535 59.3884 11.659 59.2807 11.7338C59.173 11.8085 59.0453 11.8488 58.9144 11.8495Z" fill="#1A1A1A"/>
<path d="M164.251 54.6475C163.648 54.4614 163.508 54.0893 163.601 53.7636L166.897 45.6692C166.928 45.5844 166.976 45.5068 167.037 45.4413C167.099 45.3759 167.174 45.3241 167.257 45.2891C167.34 45.2541 167.429 45.2367 167.519 45.2381C167.609 45.2395 167.698 45.2596 167.78 45.2971C167.931 45.3681 168.049 45.4947 168.109 45.6506C168.17 45.8065 168.168 45.9797 168.105 46.1344L164.855 54.2288C164.808 54.3514 164.725 54.457 164.618 54.5317C164.51 54.6064 164.382 54.6468 164.251 54.6475Z" fill="#1A1A1A"/>
<path d="M52.2295 143.919C46.6586 129.544 51.9974 121.682 56.7326 114.704C57.5683 113.541 58.3575 112.332 59.1003 111.169C64.0677 103.214 70.892 97.8644 74.0953 97.8644C77.2986 97.8644 86.3048 101.074 86.7227 101.214C87.094 106.889 80.8732 107.959 76.9272 108.192L79.2484 109.076C82.0338 110.192 84.9585 111.402 87.2797 113.634C88.0225 114.379 88.9046 115.402 88.951 116.612C88.9377 117.674 88.5791 118.703 87.9297 119.542C87.0476 120.752 86.212 121.264 85.6085 121.45C85.005 121.636 85.4692 123.357 84.4014 125.032C83.3337 126.706 82.3588 127.265 81.7088 127.544C81.941 128.474 82.0338 129.87 81.5232 130.8C81.0281 131.641 80.3217 132.336 79.4745 132.818C78.6274 133.3 77.669 133.55 76.695 133.545C75.163 133.545 73.6775 133.033 72.1919 132.475C71.5848 132.238 70.9649 132.036 70.3349 131.87C67.9209 131.172 66.1568 130.986 64.3926 131.172C62.6285 131.358 61.1894 133.173 59.9359 134.708C57.754 137.266 56.2684 139.267 54.9221 141.034C53.9936 142.058 53.0651 143.174 52.833 143.5C52.6009 143.826 52.3223 143.919 52.2295 143.919ZM74.1881 99.1669C71.6348 99.1669 65.1354 104.005 60.2145 111.867C59.4717 113.076 58.6825 114.239 57.8468 115.449C53.2044 122.287 48.3763 129.312 52.4616 141.872C52.766 141.467 53.0914 141.079 53.4365 140.709C55.2007 138.476 56.7326 136.476 58.3575 134.568C59.9823 132.661 61.9322 130.149 64.2534 129.87C66.5746 129.591 68.1066 129.87 70.6599 130.568L72.6561 131.219C74.0024 131.731 75.3952 132.242 76.695 132.242C77.4359 132.246 78.1647 132.055 78.8084 131.687C79.4521 131.32 79.9881 130.789 80.3626 130.149C80.6875 129.591 80.5947 128.242 80.3161 127.311C80.8268 126.474 81.9874 126.241 83.2873 124.287C84.5872 122.334 84.2622 121.217 84.2158 121.217C85.0978 120.24 85.8406 120.147 86.8619 118.798C87.3221 118.174 87.5957 117.432 87.6511 116.658C87.6047 115.914 86.9548 115.17 86.3513 114.565C84.2158 112.518 81.5696 111.402 78.7377 110.332L73.6311 108.424C73.4766 108.359 73.3453 108.249 73.2542 108.108C73.1632 107.967 73.1165 107.801 73.1204 107.633C73.2132 107.029 73.631 107.029 74.8381 106.982C79.3412 106.843 85.2835 106.191 85.7942 102.33C83.8444 101.679 76.4165 99.26 74.1881 99.1669Z" fill="#1A1A1A"/>
<path d="M80.6876 156.014C80.5029 156.014 80.3258 155.94 80.1952 155.81C80.0647 155.679 79.9913 155.501 79.9913 155.316C80.4354 148.543 80.3423 141.745 79.7127 134.987C79.6993 134.821 79.7494 134.657 79.853 134.527C79.9566 134.398 80.1057 134.312 80.2698 134.289C80.3553 134.276 80.4425 134.28 80.5264 134.301C80.6103 134.322 80.6891 134.36 80.7583 134.412C80.8275 134.464 80.8856 134.529 80.9293 134.604C80.9729 134.679 81.0013 134.762 81.0126 134.847C81.6434 141.683 81.7521 148.557 81.3376 155.409C81.3258 155.574 81.2522 155.728 81.1316 155.84C81.0109 155.952 80.8523 156.014 80.6876 156.014Z" fill="#1A1A1A"/>
<path d="M328.964 407.452C328.314 406.94 325.065 389.449 325.065 389.449C325.036 389.277 325.072 389.101 325.167 388.954C325.261 388.808 325.407 388.702 325.575 388.658C325.661 388.638 325.75 388.635 325.836 388.65C325.923 388.665 326.005 388.697 326.079 388.745C326.153 388.793 326.216 388.855 326.265 388.928C326.314 389.001 326.348 389.083 326.365 389.17L329.614 406.708C329.642 406.874 329.604 407.044 329.509 407.183C329.413 407.322 329.268 407.418 329.104 407.452H328.964Z" fill="#1A1A1A"/>
<path d="M339.085 405.684C338.908 405.685 338.738 405.618 338.608 405.497C338.479 405.376 338.4 405.21 338.389 405.033C338.389 404.893 337.506 391.17 336.346 387.774C336.317 387.692 336.305 387.604 336.31 387.517C336.316 387.43 336.339 387.345 336.378 387.267C336.417 387.189 336.471 387.119 336.537 387.062C336.603 387.006 336.68 386.963 336.764 386.937C336.93 386.9 337.103 386.922 337.255 386.998C337.407 387.074 337.529 387.2 337.599 387.355C338.806 390.891 339.689 404.382 339.735 404.986C339.725 405.161 339.655 405.326 339.536 405.453C339.418 405.581 339.258 405.663 339.085 405.684Z" fill="#1A1A1A"/>
<path d="M80.641 127.776C80.2232 127.637 77.6698 125.73 70.7062 123.357C63.7426 120.985 61.2821 123.217 61.2357 123.217C61.1002 123.329 60.9263 123.381 60.7522 123.364C60.5781 123.346 60.418 123.26 60.3072 123.124C60.1964 122.989 60.1439 122.814 60.1613 122.64C60.1787 122.465 60.2646 122.305 60.4001 122.194C60.5393 122.101 63.7426 119.542 71.1704 122.101C78.5983 124.66 80.9195 126.52 81.0588 126.613C81.1903 126.715 81.278 126.863 81.3039 127.028C81.3298 127.192 81.2919 127.36 81.1981 127.497C81.136 127.587 81.0524 127.659 80.9551 127.708C80.8577 127.757 80.7497 127.78 80.641 127.776Z" fill="#1A1A1A"/>
<path d="M84.8192 121.543C84.3085 121.31 81.1517 117.914 74.2809 115.542C67.4101 113.169 65.8781 114.518 65.8781 114.518C65.7339 114.615 65.5586 114.655 65.3869 114.629C65.2151 114.603 65.0591 114.514 64.9496 114.379C64.8947 114.316 64.8532 114.243 64.828 114.163C64.8027 114.084 64.7942 114 64.8029 113.917C64.8117 113.834 64.8375 113.753 64.8787 113.681C64.9199 113.608 64.9757 113.545 65.0425 113.495C65.2746 113.309 67.4101 111.774 74.6987 114.286C81.9873 116.798 85.1442 120.287 85.2834 120.426C85.3489 120.487 85.4003 120.56 85.4341 120.643C85.4678 120.725 85.483 120.814 85.4785 120.903C85.4741 120.991 85.4502 121.078 85.4084 121.157C85.3667 121.235 85.3081 121.304 85.237 121.357C85.1866 121.418 85.1226 121.467 85.05 121.499C84.9775 121.532 84.8985 121.547 84.8192 121.543Z" fill="#1A1A1A"/>
<path d="M69.2671 108.471C69.1055 108.461 68.9523 108.396 68.8337 108.286C68.715 108.175 68.6385 108.027 68.6172 107.866C68.6038 107.688 68.6589 107.512 68.7711 107.374C68.8834 107.235 69.0443 107.145 69.2207 107.122C70.7967 106.977 72.3832 106.993 73.956 107.168C74.1202 107.191 74.2693 107.277 74.3729 107.406C74.4764 107.536 74.5266 107.701 74.5131 107.866C74.4899 108.043 74.4 108.204 74.2619 108.317C74.1237 108.429 73.9478 108.484 73.7704 108.471C72.3038 108.325 70.8265 108.325 69.36 108.471H69.2671Z" fill="#1A1A1A"/>
<path d="M209.747 200.3C208.447 198.021 208.493 196.253 209.283 194.671C211.047 191.089 216.014 189.601 216.246 189.508C216.412 189.465 216.589 189.49 216.737 189.577C216.884 189.664 216.992 189.807 217.036 189.973C217.064 190.052 217.076 190.136 217.07 190.22C217.064 190.305 217.04 190.386 217.001 190.461C216.962 190.535 216.907 190.601 216.841 190.653C216.775 190.705 216.699 190.743 216.618 190.764C216.571 190.81 211.975 192.206 210.443 195.276C210.139 195.913 209.973 196.607 209.957 197.313C209.941 198.019 210.075 198.72 210.35 199.37C210.388 199.452 210.408 199.541 210.409 199.631C210.411 199.721 210.393 199.81 210.358 199.894C210.323 199.977 210.272 200.051 210.206 200.113C210.141 200.176 210.064 200.223 209.979 200.254L209.747 200.3Z" fill="#1A1A1A"/>
</svg>
