<svg width="495" height="431" viewBox="0 0 495 431" fill="none" xmlns="http://www.w3.org/2000/svg">
<g clip-path="url(#clip0_0_777)">
<path d="M491.598 402.652C483.503 414.15 463.025 421.498 452.48 423.608C419.485 430.343 381.251 423.267 347.983 421.362C305.871 418.913 263.76 416.872 221.648 417.076C181.713 417.212 143.887 422.927 104.429 428.098C79.4612 431.364 52.9288 432.929 28.7775 424.492C16.5317 420.206 0.340134 408.435 1.22455 393.875C3.06141 362.169 54.7656 369.245 73.8826 371.491C147.629 380.267 222.26 371.286 296.279 373.26C321.587 373.94 347.371 373.804 372.815 372.239C396.898 370.742 420.573 368.225 444.861 368.225C460.576 368.225 484.251 367.68 492.959 384.146C496.429 391.154 495.34 397.345 491.598 402.652Z" fill="#EDEFF0"/>
<path d="M122.934 292.703L143.411 297.805L148.718 288.961L267.025 85.3909L339.343 296.309L441.255 264.807L360.229 398.842C360.229 398.842 274.645 403.877 228.587 403.877C179.536 403.877 107.694 398.842 107.694 398.842L0 260.248L122.934 292.703Z" fill="#FFCF29"/>
<path d="M209.266 162.75L209.47 193.979C209.47 193.979 176.883 185.339 159.875 175.677C142.867 165.948 129.601 155.946 129.601 155.946C129.601 155.946 139.057 126.01 140.962 109.136C142.459 95.8687 143.139 97.2294 143.139 97.2294C143.139 97.2294 130.621 105.19 114.634 103.285C98.5782 101.38 90.2783 92.7389 86.9448 80.0158C83.6112 67.2927 83.5432 53.8212 83.8833 48.7184C84.2235 43.6155 84.3596 42.3228 84.3596 42.3228L105.313 40.2136C105.313 40.2136 101.98 73.0079 116.811 74.913C116.811 74.913 122.321 77.9747 136.404 68.5855C150.487 59.1962 166.542 50.2832 171.44 48.7184L163.277 132.609L191.374 50.0791L200.218 57.019C200.218 57.019 223.009 63.2785 235.594 79.6076C248.18 95.9367 252.126 116.484 251.31 131.044C250.561 145.604 243.69 170.71 225.322 187.516L209.674 163.09C209.674 163.09 225.322 142.883 227.567 129.003C229.88 115.123 222.872 108.932 216.546 107.095L209.266 162.75Z" fill="#010101"/>
<path d="M162.12 27.8988L164.909 28.0349C164.909 28.0349 165.726 26.47 165.726 25.1092C165.726 23.7485 164.977 23.3403 164.977 23.3403L162.324 23.2042L162.392 21.5032L164.297 13.8149C164.297 13.8149 167.835 10.0048 174.774 10.6172C181.781 11.2975 185.591 12.5222 185.591 12.5222C185.591 12.5222 187.36 17.557 186.952 25.0412C186.952 25.0412 190.217 20.4827 193.891 22.5238C197.565 24.4969 198.041 31.0286 191.782 33.614L191.646 49.671L189.469 55.5903C189.469 55.5903 182.598 57.9716 177.903 57.4953C173.277 57.0871 171.372 53.7532 171.372 53.7532L171.576 48.7865C171.576 48.7865 165.522 49.4668 162.46 44.9763C159.467 40.5539 162.12 27.8988 162.12 27.8988Z" fill="white"/>
<path d="M218.586 176.902L210.082 163.635C210.082 163.635 203.756 161.457 201.783 161.661C199.81 161.866 198.313 161.798 196.748 165.199C195.183 168.533 194.639 171.935 194.639 171.935C194.639 171.935 189.673 176.222 190.217 177.242C190.693 178.195 194.639 177.242 197.361 176.426C200.082 175.609 202.871 177.786 207.225 178.331C211.443 178.807 216.069 179.147 218.586 176.902Z" fill="white"/>
<path d="M103.272 268.141L101.912 277.802L97.0815 277.054L96.3332 274.877L93.9521 276.714L60.3443 274.468L78.5768 266.304L103.272 268.141Z" fill="#3A3B3A"/>
<path d="M172.529 2.38452C179.264 0.343381 187.768 0.887685 192.462 7.14718C192.462 7.14718 197.701 8.37186 197.905 14.2912C198.041 20.1424 195.388 23.8165 195.388 23.8165C195.388 23.8165 192.462 20.0064 189.197 22.8639L188.04 23.4763C188.04 23.4763 189.401 16.5364 187.564 13.3386C187.564 13.3386 182.938 10.413 176.407 10.413C169.876 10.413 164.433 13.2026 164.433 13.2026L162.596 17.7611C162.596 17.7611 162.664 14.5633 163.072 11.6377C163.753 7.48737 165.862 4.42566 172.529 2.38452Z" fill="white"/>
<path d="M205.456 192.891L211.919 305.426L172.257 295.9L155.385 199.559C155.385 199.559 135.315 194.184 125.383 194.864C115.45 195.476 112.593 200.171 111.844 205.886C111.368 209.356 111.64 268.345 111.64 268.345L71.2294 265.555L73.6105 191.87C73.6105 191.87 70.9572 173.296 88.4414 165.267C106.81 156.899 128.988 155.402 128.988 155.402C128.988 155.402 145.18 170.642 171.372 180.44C197.497 190.305 205.456 192.891 205.456 192.891Z" fill="white"/>
<path d="M77.3522 26.3339C77.3522 23 76.944 22.5918 76.944 22.5918L130.349 22.6598L130.893 24.3608L165.454 24.9051C166.61 26.606 164.841 29.8038 164.841 29.8038L131.029 30.2801L130.077 32.0491L75.1072 31.7769C75.1072 31.7089 77.3522 29.8719 77.3522 26.3339Z" fill="#FFCF29"/>
<path d="M86.7406 21.1631C86.7406 21.1631 86.4005 17.8972 93.884 17.557C101.367 17.2169 103.068 17.8972 104.021 18.4415C105.041 18.9858 108.239 19.5301 107.967 25.0412L109.463 30.2801C109.463 30.2801 107.014 38.1726 102.184 40.3498L88.3734 41.5064L86.4685 30.2801L103.272 30.1441L102.252 26.6741C102.252 26.6741 101.64 28.7153 99.0544 28.5792C96.4692 28.4431 95.9249 24.9051 95.9249 24.9051C95.9249 24.9051 95.2446 28.7833 91.9111 28.5792C88.5775 28.3751 88.6455 26.5381 88.6455 26.5381C88.6455 26.5381 90.8906 23.2042 88.7136 21.4352L86.7406 21.1631Z" fill="white"/>
<path d="M73.0662 26.4019C73.0662 29.0554 73.8146 31.1646 74.699 31.1646C75.5834 31.1646 76.3317 29.0554 76.3317 26.4019C76.3317 23.7485 75.5834 21.6393 74.699 21.6393C73.8146 21.6393 73.0662 23.7485 73.0662 26.4019Z" fill="white"/>
<path d="M83.9514 269.366C83.8834 269.366 74.563 268.549 74.563 268.549C74.631 267.665 83.9514 268.481 83.9514 268.481C84.4276 269.161 84.2235 269.366 83.9514 269.366Z" fill="white"/>
<path d="M79.9375 271.203C79.8695 271.203 70.5491 270.386 70.5491 270.386C70.6171 269.502 79.9375 270.318 79.9375 270.318C80.3457 271.067 80.1416 271.203 79.9375 271.203Z" fill="white"/>
<path d="M182.121 69.7422L179.4 73.8925L176.271 95.0523L166.27 123.764L170.216 86.3434L174.502 72.5998L174.162 67.0206L179.74 60.6931L182.121 69.7422Z" fill="#FFCF29"/>
<path d="M231.445 44.2959H381.659L359.208 41.9827C359.208 41.9827 361.113 31.913 347.983 29.2596C334.853 26.538 332.336 36.7437 332.336 36.7437C332.336 36.7437 339.207 20.8228 309.953 19.8023C280.7 18.7817 283.557 36.2675 283.557 36.2675C283.557 36.2675 284.918 32.5254 275.393 32.0491C265.937 31.5728 265.052 39.6013 265.052 39.6013L231.445 44.2959Z" fill="white"/>
<path d="M362.27 125.397H424.043L403.565 120.839C403.565 120.839 403.361 114.783 391.864 114.443C380.366 114.103 381.251 122.131 381.251 122.131L362.27 125.397Z" fill="white"/>
<path d="M135.383 136.215L120.008 134.378C120.008 134.378 124.975 121.451 107.558 118.593C90.1423 115.736 85.1759 131.453 85.1759 131.453C85.1759 131.453 84.5637 127.098 73.3384 127.098C62.1131 127.098 59.0517 136.011 59.0517 136.011L21.4981 140.434L133.819 140.774L135.383 136.215Z" fill="white"/>
<path d="M375.128 192.142C374.311 191.666 374.311 191.19 374.584 190.918L381.999 183.502C382.271 183.229 382.747 183.229 383.02 183.502C383.292 183.774 383.292 184.25 383.02 184.522L375.604 191.938C375.468 192.074 375.332 192.142 375.128 192.142Z" fill="#1A1A1A"/>
<path d="M382.543 192.142C381.999 191.938 374.584 184.522 374.584 184.522C374.311 184.25 374.311 183.774 374.584 183.502C374.856 183.229 375.332 183.229 375.604 183.502L383.019 190.918C383.292 191.19 383.292 191.666 383.019 191.938C382.951 192.074 382.747 192.142 382.543 192.142Z" fill="#1A1A1A"/>
<path d="M366.284 180.1C364.719 180.1 363.426 178.807 363.426 177.242C363.426 175.677 364.719 174.385 366.284 174.385C367.848 174.385 369.141 175.677 369.141 177.242C369.141 178.807 367.848 180.1 366.284 180.1ZM366.284 175.881C365.535 175.881 364.855 176.494 364.855 177.31C364.855 178.059 365.467 178.739 366.284 178.739C367.032 178.739 367.712 178.127 367.712 177.31C367.712 176.494 367.1 175.881 366.284 175.881Z" fill="#1A1A1A"/>
<path d="M34.5602 60.3529C32.9955 60.3529 31.7029 59.0602 31.7029 57.4953C31.7029 55.9304 32.9955 54.6377 34.5602 54.6377C36.1249 54.6377 37.4176 55.9304 37.4176 57.4953C37.4176 59.0602 36.1249 60.3529 34.5602 60.3529ZM34.5602 56.0665C33.8119 56.0665 33.1316 56.6788 33.1316 57.4953C33.1316 58.2437 33.7438 58.9241 34.5602 58.9241C35.3086 58.9241 35.9889 58.3117 35.9889 57.4953C35.9889 56.6788 35.3086 56.0665 34.5602 56.0665Z" fill="#1A1A1A"/>
<path d="M71.9098 235.142H39.2545C38.8463 235.142 38.5061 234.802 38.5061 234.394C38.5061 233.986 38.8463 233.646 39.2545 233.646H71.9098C72.318 233.646 72.6581 233.986 72.6581 234.394C72.5901 234.87 72.2499 235.142 71.9098 235.142Z" fill="#1A1A1A"/>
<path d="M247.432 410.748C200.218 410.748 131.574 405.714 130.893 405.714C129.873 404.693 22.7907 257.391 22.7907 257.391C23.5391 256.302 71.0934 268.889 71.0934 268.889C71.5015 268.957 71.7056 269.366 71.6376 269.774C71.5696 270.182 71.1614 270.386 70.7532 270.318L25.1718 258.207L131.37 404.353C136.744 404.761 201.987 409.388 247.432 409.388C303.286 409.388 377.169 404.761 383.088 404.353L463.025 272.155L272.672 321.619C272.332 321.619 93.748 277.53 93.748 277.53C93.3398 277.462 93.1357 277.054 93.2037 276.646C93.2718 276.237 93.6799 276.033 94.0881 276.101L272.468 320.19L464.386 270.386C465.202 271.475 384.108 405.509 384.108 405.509C382.815 405.782 305.395 410.748 247.432 410.748Z" fill="#1A1A1A"/>
<path d="M361.113 298.554C360.433 298.01 290.224 93.2152 290.224 93.2152L208.382 233.986C208.178 234.326 207.769 234.462 207.361 234.258C207.021 234.054 206.885 233.646 207.089 233.305L289.68 91.1741C290.972 91.3101 361.726 297.601 361.726 297.601C361.862 298.01 361.658 298.418 361.249 298.486C361.249 298.486 361.181 298.554 361.113 298.554Z" fill="#1A1A1A"/>
<path d="M255.664 317.332C255.12 317.264 254.915 316.856 254.984 316.516L279.407 169.554L219.811 307.807C219.675 308.147 219.199 308.351 218.859 308.215C218.518 308.079 218.314 307.603 218.45 307.263L280.427 163.566C280.564 163.226 280.972 163.022 281.312 163.158C281.652 163.294 281.856 163.634 281.788 163.975L256.344 316.788C256.344 317.128 256.072 317.332 255.664 317.332Z" fill="#1A1A1A"/>
<path d="M251.718 410.748C251.174 410.612 250.902 410.272 251.038 409.864L271.787 320.666C271.855 320.258 272.264 320.054 272.672 320.122C273.08 320.19 273.284 320.598 273.216 321.006L252.466 410.204C252.33 410.544 252.058 410.748 251.718 410.748Z" fill="#1A1A1A"/>
<path d="M444.724 235.142H339.343C338.935 235.142 338.595 234.802 338.595 234.394C338.595 233.986 338.935 233.646 339.343 233.646H444.656C445.065 233.646 445.405 233.986 445.405 234.394C445.405 234.87 445.065 235.142 444.724 235.142Z" fill="#1A1A1A"/>
<path d="M161.712 235.142H111.3C110.892 235.142 110.552 234.802 110.552 234.394C110.552 233.986 110.892 233.646 111.3 233.646H161.712C162.12 233.646 162.46 233.986 162.46 234.394C162.392 234.87 162.12 235.142 161.712 235.142Z" fill="#1A1A1A"/>
<path d="M108.171 27.4225C107.695 27.4225 107.422 27.0824 107.422 26.6741C107.558 23.9526 107.014 21.9115 105.79 20.5507C104.429 19.1219 102.388 18.4415 99.3266 18.3735C99.0545 18.3735 98.6463 18.3735 98.17 18.3735C95.0406 18.3055 87.8292 18.0333 87.353 21.027C87.2849 21.4352 86.9448 21.7074 86.5366 21.6393C86.1284 21.5713 85.8563 21.2311 85.9243 20.8229C86.6046 16.5365 94.4963 16.8086 98.2381 16.9447C98.6463 16.9447 99.0545 16.9447 99.3266 16.9447C102.728 16.9447 105.177 17.8292 106.81 19.5982C108.375 21.2311 109.055 23.6805 108.851 26.7422C108.851 27.0824 108.511 27.4225 108.171 27.4225Z" fill="#1A1A1A"/>
<path d="M92.2513 29.3275C88.3735 29.3275 88.1694 26.6741 88.1694 26.606C88.3735 26.0617 90.0743 23.4763 87.9653 21.7073C87.6931 21.4351 87.6251 21.0269 87.8972 20.6867C88.1694 20.4146 88.5776 20.3465 88.9177 20.6187C91.2308 22.5918 90.4824 25.3133 89.6661 26.6741C89.8021 27.0823 90.3464 27.9668 92.5914 27.8307C93.4759 27.7627 94.0881 27.5586 94.4963 27.0823C95.1766 26.2658 95.1086 25.0412 95.1086 25.0412C95.0406 24.6329 95.3127 24.2927 95.7209 24.2247C96.0611 24.1567 96.4692 24.4288 96.5373 24.837C96.5373 24.9731 97.1496 27.8307 99.3946 27.8307C101.504 27.8307 101.776 26.2658 101.776 26.0617C101.844 25.6535 102.184 25.3813 102.592 25.4494C103 25.5174 103.272 25.8576 103.204 26.2658C103.068 27.2864 102.116 29.2595 99.3946 29.2595C97.7619 29.2595 96.7414 28.375 95.993 27.3544C94.8365 28.7832 93.884 29.1915 92.5914 29.2595C92.5234 29.3275 92.3873 29.3275 92.2513 29.3275Z" fill="#1A1A1A"/>
<path d="M101.912 278.483C101.776 278.483 96.9454 277.598 96.9454 277.598C96.4012 277.054 96.061 275.897 96.061 275.897L94.2922 277.258C93.816 277.394 60.2082 275.217 60.2082 275.217C59.9361 273.856 78.1686 265.623 78.1686 265.623C78.5088 265.487 78.985 265.623 79.1211 265.964C79.2571 266.304 79.1211 266.78 78.7809 266.916L63.2697 273.992L93.6799 275.965L96.061 274.128C97.2176 274.536 97.6258 276.305 97.6258 276.305L101.231 276.986L102.456 268.073C102.524 267.665 102.864 267.392 103.272 267.46C103.681 267.529 103.953 267.869 103.885 268.277L102.524 277.938C102.252 278.483 102.048 278.483 101.912 278.483Z" fill="#1A1A1A"/>
<path d="M171.032 49.4668C167.835 49.4668 165.386 48.6503 163.617 47.0854C159.603 43.4794 160.215 36.5396 160.759 30.4161C160.827 29.7358 160.895 28.9873 160.963 28.307C160.963 27.8987 161.372 27.6266 161.712 27.6266C162.12 27.6266 162.392 28.0348 162.392 28.375C162.324 29.0554 162.256 29.8038 162.188 30.4842C161.712 36.2674 161.1 42.8671 164.569 45.9968C166.882 48.038 170.692 48.5142 176.203 47.4256C176.611 47.3576 176.951 47.6298 177.019 47.9699C177.087 48.3782 176.815 48.7184 176.475 48.7864C174.502 49.2627 172.665 49.4668 171.032 49.4668Z" fill="#1A1A1A"/>
<path d="M162.324 23.9525C161.916 23.9525 161.576 23.6124 161.576 23.2041C161.576 18.3054 163.549 13.6108 163.617 13.4067C163.753 13.0665 164.161 12.8624 164.569 12.9984C164.909 13.1345 165.113 13.6108 164.977 13.951C164.977 14.019 163.072 18.5775 163.072 23.1361C163.004 23.6124 162.732 23.9525 162.324 23.9525Z" fill="#1A1A1A"/>
<path d="M191.918 34.3624C190.693 34.3624 189.537 33.8862 188.584 33.0017C188.312 32.7295 188.312 32.2533 188.584 31.9811C188.856 31.709 189.333 31.709 189.605 31.9811C190.285 32.6615 191.102 33.0017 191.986 33.0017C193.074 33.0017 194.027 32.4574 194.775 31.5729C195.592 30.6204 196 29.2596 196 27.8988C196 25.1093 194.163 22.796 191.986 22.796C190.421 22.796 188.244 23.9526 187.564 25.5175C187.428 25.8577 186.952 26.0618 186.611 25.9257C186.271 25.7897 186.067 25.3134 186.203 24.9732C187.156 22.7279 189.877 21.3672 191.918 21.3672C194.911 21.3672 197.36 24.2928 197.429 27.8988C197.429 29.5998 196.884 31.2327 195.932 32.4574C194.843 33.614 193.415 34.3624 191.918 34.3624Z" fill="#1A1A1A"/>
<path d="M192.462 31.3687C191.986 31.2326 188.584 28.5111 188.584 28.5111C188.516 27.4225 192.19 24.0887 192.19 24.0887C192.462 23.8165 192.938 23.8165 193.211 24.1567C193.483 24.4288 193.483 24.9051 193.143 25.1773L190.081 27.8988L192.87 30.076C193.211 30.3481 193.211 30.7564 193.006 31.0966C192.87 31.3007 192.666 31.3687 192.462 31.3687Z" fill="#1A1A1A"/>
<path d="M167.358 33.0016C166.27 32.1852 165.998 31.0965 167.631 23.2041C167.767 21.9795 168.039 21.7073 168.447 21.7073C168.787 21.6393 169.195 22.0475 169.263 22.4557C169.263 22.5918 169.263 22.5918 169.059 23.5443C168.039 28.6472 167.835 30.6883 167.835 31.5048C168.447 31.3007 169.399 30.8244 169.944 30.4162C170.284 30.2121 170.692 30.2801 170.964 30.6203C171.168 30.9605 171.1 31.3687 170.76 31.6409C170.352 31.845 168.583 33.0016 167.358 33.0016C167.427 33.0016 167.427 33.0016 167.358 33.0016Z" fill="#1A1A1A"/>
<path d="M171.372 37.0839C171.236 37.0839 167.562 36.6757 165.317 36.6076C164.909 36.6076 164.569 36.2674 164.569 35.8592C164.569 35.451 164.909 35.1788 165.317 35.1788C167.699 35.1788 171.304 35.6551 171.508 35.6551C171.917 35.7231 172.189 36.0633 172.121 36.4716C172.053 36.8117 171.78 37.0839 171.372 37.0839Z" fill="#1A1A1A"/>
<path d="M176.271 27.5586C175.862 27.5586 175.522 27.1504 175.522 26.7422L175.658 24.5649C175.658 24.1567 176.066 23.8165 176.475 23.8165C176.883 23.8165 177.223 24.2248 177.223 24.633L177.087 26.8102C177.087 27.2865 176.679 27.6267 176.271 27.5586Z" fill="#1A1A1A"/>
<path d="M195.456 24.633C194.775 24.4288 194.639 23.9526 194.775 23.6124C197.292 18.3054 197.837 14.019 196.408 11.1614C195.047 8.50796 192.258 7.96365 192.258 7.96365C188.448 1.56808 178.516 1.09182 170.284 3.26903C165.658 4.49372 162.8 6.46682 161.848 9.18834C160.419 13.0665 163.345 17.2849 163.345 17.2849C163.549 17.625 163.481 18.0333 163.14 18.3054C162.8 18.5095 162.392 18.4415 162.12 18.1013C161.984 17.8972 158.786 13.2706 160.419 8.64403C161.576 5.44625 164.773 3.13296 169.876 1.84024C177.971 -0.268941 188.788 -0.336979 192.87 6.6029C193.823 6.87505 196.272 7.75954 197.701 10.4811C199.401 13.7469 198.857 18.3735 196.136 24.1567C196 24.4969 195.728 24.633 195.456 24.633Z" fill="#1A1A1A"/>
<path d="M186.952 25.2453C186.475 25.1773 186.203 24.8371 186.203 24.4289C186.203 24.3608 186.748 18.0333 184.979 13.1346C182.666 12.4542 169.127 8.91622 164.773 14.1551C164.501 14.4953 164.093 14.4953 163.753 14.2232C163.481 13.951 163.413 13.5428 163.685 13.2026C169.059 6.73901 185.115 11.6377 185.795 11.8419C188.312 17.557 187.7 24.2928 187.7 24.565C187.7 24.9732 187.36 25.2453 186.952 25.2453Z" fill="#1A1A1A"/>
<path d="M163.14 134.582C162.46 133.63 190.966 49.9431 190.966 49.9431C192.122 49.603 200.558 56.5428 200.558 56.5428C200.83 56.9511 204.3 72.8719 204.3 72.8719C204.368 73.2121 204.164 73.6204 203.755 73.6884L195.32 75.9337L198.109 85.3229C198.041 85.9352 163.753 134.242 163.753 134.242C163.617 134.446 163.413 134.582 163.14 134.582ZM191.986 51.3039L165.454 129.343L196.68 85.3909L193.823 75.6615C194.299 74.777 202.803 72.5318 202.803 72.5318L199.538 57.4954L191.986 51.3039Z" fill="#1A1A1A"/>
<path d="M163.14 134.582C162.46 133.97 152.119 81.7848 152.119 81.7848C152.187 81.2405 157.29 73.008 157.29 73.008L151.507 68.8576C151.167 68.6535 151.099 68.1773 151.371 67.8371L161.644 53.0728C161.916 52.8687 171.236 48.5143 171.236 48.5143C172.257 49.2627 163.821 133.902 163.821 133.902C163.208 134.582 163.208 134.582 163.14 134.582ZM153.616 81.7848L162.936 128.935L170.76 50.3513L162.732 54.0934L152.936 68.1092L158.718 72.1915C158.99 72.3956 159.127 72.8038 158.922 73.144L153.616 81.7848Z" fill="#1A1A1A"/>
<path d="M209.674 194.728C209.266 194.66 185.183 188.128 162.8 177.786C141.506 167.921 128.784 156.014 128.648 155.946C128.58 154.994 135.724 139.685 140.214 110.293C140.282 110.021 144.228 87.5681 146.405 78.2469C146.473 77.8387 146.881 77.6346 147.289 77.7026C147.697 77.7706 147.901 78.1789 147.833 78.5871C145.656 87.8403 141.71 110.293 141.642 110.565C137.56 137.236 131.302 152.408 130.009 155.266C132.254 157.307 144.364 167.717 163.413 176.562C183.142 185.679 204.232 191.802 208.926 193.095L208.45 178.671C208.45 178.263 208.722 177.923 209.13 177.923C209.538 177.923 209.878 178.195 209.878 178.603L210.355 194.048C210.014 194.66 209.878 194.728 209.674 194.728Z" fill="#1A1A1A"/>
<path d="M225.662 188.264C225.049 187.924 209.538 163.771 209.538 163.771C208.654 163.839 208.382 163.499 208.382 163.09L215.933 106.959C223.077 109.068 226.886 113.286 228.247 118.934C232.261 135.739 213.688 159.688 210.831 163.226L225.73 186.427C230.084 182.073 255.528 154.586 250.221 116.688C244.779 77.5665 220.423 64.6393 199.878 57.7675C199.469 57.6314 199.265 57.2232 199.401 56.883C199.538 56.4748 199.946 56.2707 200.286 56.4067C221.24 63.4146 246.071 76.614 251.65 116.484C257.569 158.464 226.41 187.788 226.07 188.06C226.002 188.196 225.866 188.264 225.662 188.264ZM217.226 108.184L210.014 162.07C213.416 157.783 230.628 134.855 226.886 119.342C225.73 114.375 222.464 110.633 217.226 108.184Z" fill="#1A1A1A"/>
<path d="M119.804 76.2058C119.192 76.2058 118.58 76.2058 117.967 76.1378C101.844 74.5729 104.633 41.6425 104.769 40.2137C104.837 39.8055 105.177 39.5333 105.517 39.5333C105.926 39.6014 106.198 39.9416 106.198 40.3498C106.198 40.69 103.408 73.2802 118.103 74.709C125.723 75.4574 131.846 71.171 139.601 65.6599C145.724 61.3735 152.595 56.5428 161.916 52.8688C162.256 52.7327 162.732 52.9368 162.868 53.277C163.004 53.6172 162.8 54.0934 162.46 54.2295C153.276 57.8355 146.473 62.6662 140.418 66.8846C133.07 71.9874 127.152 76.2058 119.804 76.2058Z" fill="#1A1A1A"/>
<path d="M119.532 104.305C113.273 104.305 107.899 103.013 103.681 101.516C77.9645 92.1947 83.5431 44.296 83.8152 42.2548C84.4275 41.6425 105.381 39.5333 105.381 39.5333C105.79 39.4653 106.13 39.8054 106.198 40.1456C106.266 40.5539 105.926 40.8941 105.517 40.9621L85.1759 43.0032C84.6316 48.5143 81.0259 91.7184 104.157 100.155C112.729 103.285 126.335 105.258 142.051 97.0254C143.003 96.5491 143.275 96.345 143.683 96.6852C134.295 102.741 126.403 104.305 119.532 104.305Z" fill="#1A1A1A"/>
<path d="M172.597 296.649C171.712 295.152 156.269 207.655 154.977 200.239C153.14 199.967 150.759 199.423 148.037 198.81C135.656 196.021 116.879 191.802 113.001 202.892C112.185 205.274 112.185 207.859 112.185 210.309V229.223C112.185 242.354 112.185 255.486 112.253 268.549C111.504 269.298 71.0933 266.372 71.0933 266.372C70.6851 266.372 70.413 266.032 70.413 265.623C70.413 265.011 71.2974 204.661 73.2703 183.638C75.3113 162.274 106.334 157.851 129.056 154.654C129.465 154.654 129.805 154.858 129.873 155.266C129.941 155.674 129.669 156.014 129.261 156.082C107.082 159.212 76.6719 163.499 74.767 183.774C72.9301 203.505 71.9777 258.207 71.9097 264.943L110.824 267.733C110.756 254.873 110.756 242.014 110.756 229.155V210.241C110.756 207.723 110.756 204.934 111.64 202.348C115.926 190.033 135.383 194.456 148.309 197.381C151.235 198.062 153.752 198.606 155.657 198.878C156.201 199.082 156.201 199.082 173.277 295.832C173.345 296.241 173.073 296.581 172.665 296.649C172.665 296.649 172.665 296.649 172.597 296.649Z" fill="#1A1A1A"/>
<path d="M212.191 306.514C211.783 306.514 211.511 306.242 211.443 305.834L204.98 192.959C204.98 192.551 205.252 192.21 205.66 192.21C206.137 192.21 206.409 192.483 206.409 192.891L212.872 305.766C212.94 306.174 212.6 306.514 212.191 306.514Z" fill="#1A1A1A"/>
<path d="M132.934 29.3275C132.934 28.2389 164.501 27.6266 164.501 27.6266C164.637 27.6266 164.977 27.2183 164.977 25.8576C164.977 24.2927 164.365 24.0886 164.365 24.0886L133.206 23.4763C133.206 22.3877 164.569 23 164.569 23C164.841 23.068 166.134 23.3402 166.134 25.8576C166.134 28.6471 164.773 28.7152 164.569 28.7152L132.934 29.3275Z" fill="#1A1A1A"/>
<path d="M88.4414 21.7073H76.6039C76.6039 20.6187 88.4414 20.6187 88.4414 20.6187C88.9857 21.4351 88.7816 21.7073 88.4414 21.7073Z" fill="#1A1A1A"/>
<path d="M132.458 30.8925H109.531C109.531 29.8039 132.118 29.8039 132.118 29.8039C132.322 29.2595 132.662 27.8988 132.662 25.7896C132.662 23.4763 132.322 22.2516 132.118 21.7754H107.218C107.218 20.6868 132.458 20.6868 132.458 20.6868C133.002 21.027 133.751 22.2516 133.751 25.7896C133.751 28.9194 133.002 30.5523 133.002 30.6203C132.866 30.7564 132.662 30.8925 132.458 30.8925Z" fill="#1A1A1A"/>
<path d="M103.408 30.8924H76.6039C76.6039 29.8038 103.408 29.8038 103.408 29.8038C103.953 30.6203 103.749 30.8924 103.408 30.8924Z" fill="#1A1A1A"/>
<path d="M76.6719 30.8925C75.2432 30.8925 74.5629 28.239 74.5629 25.7896C74.5629 23.3402 75.2432 20.6868 76.6719 20.6868C78.1006 20.6868 78.7809 23.3402 78.7809 25.7896C78.7129 28.239 78.1006 30.8925 76.6719 30.8925ZM76.6719 21.7073C76.3998 21.7073 75.6514 23.0681 75.6514 25.7216C75.6514 28.3751 76.3998 29.7358 76.6719 29.7358C76.944 29.7358 77.6924 28.3751 77.6924 25.7216C77.6244 23.0681 76.876 21.7073 76.6719 21.7073Z" fill="#1A1A1A"/>
<path d="M155.589 200.307C155.249 200.307 154.909 200.035 154.841 199.695L153.072 185.475C153.004 185.066 153.276 184.726 153.684 184.658C154.16 184.59 154.432 184.862 154.5 185.271L156.269 199.491C156.337 199.899 156.065 200.239 155.657 200.307H155.589Z" fill="#1A1A1A"/>
<path d="M191.646 50.8276C191.238 50.8276 190.897 50.4874 190.897 50.0792L191.17 33.614C191.17 33.2057 191.51 32.9336 191.918 32.9336C192.326 32.9336 192.666 33.2738 192.666 33.682L192.394 50.1472C192.394 50.4874 192.054 50.8276 191.646 50.8276Z" fill="#1A1A1A"/>
<path d="M179.876 58.3117C172.801 57.7674 170.692 54.1614 170.556 54.0254C170.488 53.6171 170.896 48.7184 170.896 48.7184C170.896 48.3102 171.304 47.97 171.712 48.038C172.121 48.106 172.393 48.4462 172.393 48.7864L171.985 53.413C172.461 54.0934 174.434 56.4067 179.264 56.7469C182.257 56.951 188.04 55.5222 189.469 54.7738C189.809 54.5697 190.285 54.7057 190.421 55.0459C190.625 55.3861 190.489 55.8624 190.149 55.9985C188.448 57.019 183.142 58.3117 179.876 58.3117Z" fill="#1A1A1A"/>
<path d="M102.864 40.9621C102.048 40.2137 102.184 39.7374 102.524 39.6013C106.13 37.8324 108.307 31.5729 108.715 30.3482C107.899 27.8308 106.266 23.7485 105.245 22.932C103.817 23.6124 102.932 25.7896 103.204 26.8102C103.681 28.5112 104.225 30.1441 104.225 30.1441C104.361 30.5523 104.157 30.9605 103.749 31.0286C103.34 31.1646 102.932 30.9605 102.864 30.5523C102.864 30.5523 102.32 28.9194 101.776 27.1504C101.299 25.5855 102.388 22.7279 103.817 21.7074C104.565 21.1631 105.381 21.2311 106.062 21.7074C107.831 23.1362 109.871 29.3276 110.076 30.008C110.008 30.7564 107.626 38.5808 103.068 40.826C103.068 40.9621 103 40.9621 102.864 40.9621Z" fill="#1A1A1A"/>
<path d="M88.3735 42.4589C87.6251 41.8465 85.9924 30.7563 85.9924 30.7563C85.9243 30.3481 86.1964 30.0079 86.6046 29.9399C86.9448 29.8718 87.353 30.144 87.421 30.5522L89.0538 41.6424C89.1218 42.0506 88.8497 42.3908 88.4415 42.4589H88.3735Z" fill="#1A1A1A"/>
<path d="M178.38 22.7279H174.774C174.366 22.7279 174.026 22.3877 174.026 21.9795C174.026 21.5713 174.366 21.2311 174.774 21.2311H178.38C178.788 21.2311 179.128 21.5713 179.128 21.9795C179.06 22.3877 178.788 22.7279 178.38 22.7279Z" fill="#1A1A1A"/>
<path d="M166.542 22.7279H162.936C162.528 22.7279 162.188 22.3877 162.188 21.9795C162.188 21.5713 162.528 21.2311 162.936 21.2311H166.542C166.95 21.2311 167.29 21.5713 167.29 21.9795C167.29 22.3877 166.95 22.7279 166.542 22.7279Z" fill="#1A1A1A"/>
<path d="M212.123 179.555C208.654 179.555 204.98 178.535 202.395 177.786C201.034 177.378 199.742 177.038 199.197 177.038C198.381 177.038 197.02 177.446 195.796 177.786C193.279 178.535 191.102 179.079 190.081 178.127C189.809 177.855 189.673 177.514 189.673 177.038C189.741 175.405 192.734 172.752 193.891 171.799C194.299 170.234 196.408 163.294 198.993 161.593C201.783 159.756 209.742 162.614 210.627 162.954C210.967 163.09 211.171 163.498 211.035 163.907C210.899 164.247 210.491 164.451 210.082 164.315C206.953 163.158 201.442 161.661 199.742 162.75C197.837 164.043 195.796 170.098 195.183 172.343C192.87 174.385 191.034 176.494 191.102 177.038C191.51 177.378 193.959 176.698 195.388 176.29C196.816 175.881 198.109 175.541 199.129 175.473C199.946 175.473 201.102 175.813 202.735 176.29C206.817 177.446 213.552 179.419 217.634 176.494C217.974 176.29 218.382 176.358 218.654 176.63C218.859 176.97 218.791 177.378 218.518 177.65C216.682 179.079 214.436 179.555 212.123 179.555Z" fill="#1A1A1A"/>
<path d="M161.984 235.142H111.572C111.164 235.142 110.824 234.802 110.824 234.394C110.824 233.986 111.164 233.646 111.572 233.646H161.984C162.392 233.646 162.732 233.986 162.732 234.394C162.664 234.87 162.324 235.142 161.984 235.142Z" fill="#1A1A1A"/>
<path d="M183.346 74.4368C182.802 74.0286 178.107 58.652 178.107 58.652L170.08 69.7422C169.195 69.1298 177.835 57.1552 177.835 57.1552C178.788 57.2912 183.822 73.7564 183.822 73.7564C183.482 74.4368 183.414 74.4368 183.346 74.4368Z" fill="#1A1A1A"/>
<path d="M390.843 257.663H367.576C367.168 257.663 366.828 257.323 366.828 256.915C366.828 256.506 367.168 256.166 367.576 256.166H390.843C391.251 256.166 391.592 256.506 391.592 256.915C391.592 257.323 391.251 257.663 390.843 257.663Z" fill="#1A1A1A"/>
<path d="M63.8139 363.462H13.1301C12.7219 363.462 12.3818 363.122 12.3818 362.714C12.3818 362.305 12.7219 361.965 13.1301 361.965H63.7459C64.1541 361.965 64.4942 362.305 64.4942 362.714C64.4942 363.122 64.1541 363.462 63.8139 363.462Z" fill="#1A1A1A"/>
<path d="M32.5192 377.342H15.5793C15.1711 377.342 14.8309 377.002 14.8309 376.593C14.8309 376.185 15.1711 375.845 15.5793 375.845H32.5192C32.9274 375.845 33.2676 376.185 33.2676 376.593C33.2676 377.07 32.9274 377.342 32.5192 377.342Z" fill="#1A1A1A"/>
<path d="M453.433 422.927H410.436C410.028 422.927 409.688 422.587 409.688 422.179C409.688 421.771 410.028 421.43 410.436 421.43H453.433C453.841 421.43 454.181 421.771 454.181 422.179C454.181 422.655 453.841 422.927 453.433 422.927Z" fill="#1A1A1A"/>
<path d="M146.269 429.459H103.272C102.864 429.459 102.524 429.119 102.524 428.71C102.524 428.302 102.864 427.962 103.272 427.962H146.269C146.677 427.962 147.017 428.302 147.017 428.71C146.949 429.119 146.677 429.459 146.269 429.459Z" fill="#1A1A1A"/>
<path d="M485.476 351.828H460.372C459.964 351.828 459.623 351.487 459.623 351.079C459.623 350.671 459.964 350.331 460.372 350.331H485.476C485.884 350.331 486.224 350.671 486.224 351.079C486.224 351.487 485.884 351.828 485.476 351.828Z" fill="#1A1A1A"/>
<path d="M464.59 364.483H453.433C453.024 364.483 452.684 364.142 452.684 363.734C452.684 363.326 453.024 362.986 453.433 362.986H464.59C464.998 362.986 465.338 363.326 465.338 363.734C465.27 364.142 464.998 364.483 464.59 364.483Z" fill="#1A1A1A"/>
<path d="M172.733 106.21C172.189 105.598 177.087 72.4636 177.087 72.4636C177.155 72.2595 180.761 66.6804 180.761 66.6804C181.645 67.2928 178.107 72.7358 178.107 72.7358L173.209 105.734C173.277 106.006 173.005 106.21 172.733 106.21Z" fill="#1A1A1A"/>
<path d="M167.835 87.6361C167.29 86.9557 172.189 71.1709 172.189 71.1709L171.849 65.6598C172.937 65.5918 173.277 71.1709 173.277 71.1709C173.277 71.375 168.311 87.2278 168.311 87.2278C168.243 87.5 168.039 87.6361 167.835 87.6361Z" fill="#1A1A1A"/>
<path d="M177.631 73.144C177.495 73.144 172.597 71.8513 172.597 71.8513C172.869 70.8307 177.767 72.1234 177.767 72.1234C178.107 72.9399 177.903 73.144 177.631 73.144Z" fill="#1A1A1A"/>
<path d="M194.639 172.82C193.823 172.139 193.891 171.663 194.231 171.459C194.299 171.459 195.32 170.778 196.748 170.506C198.177 170.234 200.558 170.778 200.83 170.847C201.238 170.915 201.442 171.323 201.374 171.731C201.306 172.139 200.898 172.343 200.49 172.275C199.878 172.139 197.973 171.731 197.02 171.935C195.864 172.207 194.979 172.684 194.979 172.684C194.911 172.82 194.775 172.82 194.639 172.82Z" fill="#1A1A1A"/>
<path d="M386.013 40.826H235.799C235.39 40.826 235.118 40.5538 235.05 40.1456C235.05 39.7373 235.322 39.4652 235.662 39.3972L268.794 34.7706C269.202 32.9335 271.107 27.0823 278.931 27.0823C283.285 27.2864 285.734 27.8987 287.231 28.9873C287.503 26.8101 288.455 23.8165 291.108 21.0949C295.258 16.9446 302.266 14.8354 311.858 14.8354C312.607 14.8354 313.423 14.8354 314.239 14.9035C325.328 15.3117 332.608 17.8291 336.01 22.4557C337.506 24.4968 337.982 26.606 338.05 28.375C339.819 26.1298 342.881 23.8845 348.051 23.8845C349.412 23.8845 350.84 24.0206 352.337 24.3608C363.835 26.7421 364.311 34.6345 364.175 37.1519L385.945 39.3972C386.353 39.4652 386.625 39.7373 386.557 40.1456C386.693 40.4858 386.421 40.826 386.013 40.826ZM246.207 39.3291H372.134L363.426 38.4446C362.882 37.2199 364.379 28.1709 352.133 25.6535C350.704 25.3813 349.412 25.2453 348.119 25.2453C341.044 25.2453 338.459 29.9399 337.642 31.913C337.166 33.1377 336.826 33.3418 336.486 33.2057C336.146 33.0696 335.941 32.7294 336.01 32.3212C336.758 29.7358 337.234 26.3339 334.921 23.2041C331.792 18.9858 324.852 16.6044 314.239 16.2642C313.423 16.2642 312.607 16.1962 311.858 16.1962C302.606 16.1962 295.939 18.1693 292.129 22.0475C289.067 25.1772 288.523 28.7152 288.523 30.6203C288.795 31.4367 288.591 32.1171 288.591 32.1851C287.231 32.0491 287.095 31.6408 287.095 30.8924C286.754 30.212 285.326 28.7152 279.679 28.443C271.039 27.9668 270.155 35.0427 270.155 35.3829C269.542 36.0633 246.207 39.3291 246.207 39.3291Z" fill="#1A1A1A"/>
<path d="M428.397 121.859H366.624C366.216 121.859 365.944 121.587 365.875 121.179C365.875 120.839 366.08 120.498 366.488 120.43L384.856 117.233C384.856 116.212 385.129 114.239 386.693 112.47C388.598 110.293 391.728 109.272 396.218 109.408C406.354 109.68 408.191 114.307 408.531 115.94L428.533 120.43C428.873 120.498 429.145 120.839 429.077 121.179C429.009 121.587 428.737 121.859 428.397 121.859ZM374.992 120.43H421.798L407.715 117.301C407.171 116.416 406.763 111.177 396.15 110.905C391.864 110.905 389.278 111.79 387.782 113.491C386.081 115.396 386.353 117.777 386.353 117.777C386.421 118.185 386.149 118.525 385.741 118.593L374.992 120.43Z" fill="#1A1A1A"/>
<path d="M134.771 138.529H26.5324C26.1242 138.529 25.8521 138.256 25.7841 137.848C25.7841 137.44 26.0562 137.1 26.3963 137.1L63.5418 132.677C64.3581 130.84 68.236 123.764 78.3727 123.764C85.8562 123.764 88.8496 125.737 90.0742 127.166C91.843 123.22 98.102 112.878 112.661 115.26C118.784 116.28 122.866 118.593 124.975 122.131C127.015 125.669 126.403 129.48 125.927 131.112L136.336 132.541C136.744 132.609 137.016 132.949 136.948 133.358C136.88 133.766 136.608 134.038 136.132 133.97L124.838 132.405C124.294 131.385 125.995 126.826 123.614 122.812C121.777 119.614 117.967 117.573 112.321 116.62C95.7208 113.967 90.7545 128.799 90.6865 129.003C89.2578 128.867 88.4414 125.125 78.1686 125.125C67.6237 125.125 64.6303 133.154 64.5622 133.562C63.9499 134.038 38.5741 137.032 38.5741 137.032H134.567C134.975 137.032 135.315 137.372 135.315 137.78C135.519 138.188 135.179 138.529 134.771 138.529Z" fill="#1A1A1A"/>
</g>
<defs>
<clipPath id="clip0_0_777">
<rect width="495" height="430" fill="white" transform="translate(0 0.683594)"/>
</clipPath>
</defs>
</svg>
