<svg width="482" height="532" viewBox="0 0 482 532" fill="none" xmlns="http://www.w3.org/2000/svg">
<g clip-path="url(#clip0_2_100)">
<path d="M329.663 299.473L321.126 325.568C321.126 325.568 313.211 299.163 290.938 290.62C268.666 282.076 256.482 284.562 256.482 284.562C256.482 284.562 263.078 279.98 262.225 274.232C261.371 268.485 251.826 263.825 251.826 263.825L215.352 265.146C215.352 265.146 206.815 268.33 206.272 274.698C205.729 281.067 210.851 284.562 210.851 284.562C210.851 284.562 191.294 283.552 179.964 288.756C168.634 293.959 152.88 300.172 144.499 325.568C136.118 350.965 135.264 379.778 135.264 379.778L97.0829 389.486C97.0829 389.486 86.2959 396.01 87.9256 400.126L95.6861 443.385C95.6861 443.385 104.067 479.499 130.841 479.499C157.614 479.499 164.521 459.695 164.521 459.695C164.521 459.695 156.838 516.389 150.863 531.068H315.694C315.694 531.068 303.588 484.314 299.863 446.725C299.863 446.725 296.138 417.601 297.923 406.029C297.923 406.029 301.415 437.327 323.61 442.608C345.805 447.89 359.385 435.308 367.146 416.902C374.906 398.495 379.562 364.789 381.192 354.693C382.822 344.596 388.409 308.405 388.409 308.405C388.409 308.405 389.496 300.716 362.179 296.833C334.862 292.949 331.836 293.571 329.663 299.473Z" fill="#FFCF29"/>
<path d="M176.938 242.312H22.1172C10.4165 242.312 0.931244 251.805 0.931244 263.515V358.389C0.931244 370.099 10.4165 379.592 22.1172 379.592H176.938C188.638 379.592 198.124 370.099 198.124 358.389V263.515C198.124 251.805 188.638 242.312 176.938 242.312Z" fill="white"/>
<path d="M144.887 100.187C144.887 109.634 142.088 118.868 136.844 126.723C131.599 134.578 124.146 140.699 115.425 144.315C106.704 147.93 97.1076 148.876 87.8495 147.033C78.5914 145.19 70.0874 140.641 63.4127 133.961C56.738 127.281 52.1925 118.77 50.3509 109.505C48.5094 100.24 49.4545 90.6362 53.0668 81.9086C56.6792 73.1809 62.7964 65.7213 70.645 60.473C78.4936 55.2246 87.7211 52.4234 97.1605 52.4234C109.818 52.4234 121.958 57.4556 130.908 66.413C139.859 75.3704 144.887 87.5192 144.887 100.187V100.187Z" fill="#FFCF29"/>
<path d="M203.168 229.575C203.168 229.575 195.796 201.228 209.376 197.267C209.376 197.267 214.886 191.365 220.008 189.112C220.008 189.112 207.281 173.502 210.385 164.959C213.489 156.416 222.569 154.241 233.434 154.164C244.298 154.086 256.249 157.348 256.948 165.735C257.646 174.123 246.704 188.879 246.704 188.879C246.704 188.879 262.613 192.918 263.389 206.199C264.165 219.479 262.302 228.333 262.302 228.333L258.577 231.051L205.806 234.235L203.168 229.575Z" fill="#1A1A1A"/>
<path d="M257.957 248.681C257.957 248.681 272.546 253.185 272.779 239.361C272.779 239.361 271.77 227.712 259.276 230.973L258.577 228.255C258.577 228.255 248.178 230.119 235.839 221.421C229.173 216.845 222.773 211.892 216.671 206.587C216.671 206.587 210.696 221.032 208.212 224.527V231.284C208.212 231.284 196.339 227.556 194.243 239.361C194.243 239.361 194.243 248.759 201.771 249.457C209.299 250.156 208.988 248.137 208.988 248.137C208.988 248.137 210.696 262.583 218.766 266.854L217.99 277.494C217.99 277.494 223.733 282.698 234.598 281.455C245.462 280.213 248.799 277.261 248.799 277.261L248.178 266.854C248.178 266.854 256.094 261.651 257.957 248.681Z" fill="white"/>
<path d="M339.674 306.618C339.674 306.618 345.882 292.484 345.184 289.299C344.485 286.115 338.355 279.048 335.25 276.485C332.146 273.922 332.146 268.718 335.25 266.932C338.355 265.146 343.244 266.932 347.977 271.048C352.711 275.164 358.532 281.533 360.705 281.455C360.705 281.455 376.924 269.184 383.831 267.398C390.737 265.612 393.919 265.301 395.704 268.097C395.704 268.097 401.447 268.408 402.766 272.524C402.766 272.524 407.655 271.514 409.44 274.465C411.225 277.417 408.742 283.242 403.077 287.202C397.411 291.163 388.564 296.289 382.201 297.92C375.837 299.551 373.276 313.919 373.276 313.919C373.276 313.919 351.935 313.22 339.674 306.618Z" fill="white"/>
<path d="M134.566 393.525L130.453 378.38C130.453 378.38 136.661 370.769 133.091 355.78C129.521 340.791 119.511 343.897 119.511 343.897C119.511 343.897 113.38 328.986 111.673 321.142C109.965 313.298 104.843 303.667 98.247 304.987C91.6506 306.308 90.7969 316.792 92.7371 325.025C94.6772 333.257 99.023 345.218 99.023 345.218C99.023 345.218 91.573 338.771 88.7793 339.004C85.9855 339.237 80.2428 341.567 78.7683 345.062C77.8071 347.326 77.1294 349.7 76.7506 352.13C76.7506 352.13 71.1631 355.159 70.9303 360.828C70.6975 366.498 74.6553 372.4 89.5553 381.409C89.5553 381.409 91.8834 388.942 100.032 390.03L102.205 403.31C102.205 403.31 111.828 402.456 119.511 399.66C127.193 396.864 134.566 393.525 134.566 393.525Z" fill="white"/>
<path d="M93.9788 153.309V172.026C93.9788 172.026 95.6084 181.346 107.87 181.346C120.131 181.346 122.692 173.036 122.692 173.036L123.313 153.309C123.313 153.309 111.285 158.823 93.9788 153.309Z" fill="#1A1A1A"/>
<path d="M99.5662 317.025C110.367 317.025 119.123 308.263 119.123 297.454C119.123 286.645 110.367 277.883 99.5662 277.883C88.7656 277.883 80.01 286.645 80.01 297.454C80.01 308.263 88.7656 317.025 99.5662 317.025Z" fill="#FFCF29"/>
<path d="M96.1516 389.486L99.5663 390.185L102.748 403.543C102.748 403.543 88.7017 403.932 87.9256 400.126C87.1496 396.321 96.1516 389.486 96.1516 389.486Z" fill="#1A1A1A"/>
<path d="M131.306 380.788L134.566 393.525C134.566 393.525 147.138 387.001 144.189 382.108C141.24 377.215 131.306 380.788 131.306 380.788Z" fill="#1A1A1A"/>
<path d="M343.476 294.58C343.476 294.58 341.614 305.298 339.674 306.618C337.734 307.939 328.654 302.502 330.128 298.075C331.603 293.648 343.476 294.58 343.476 294.58Z" fill="#1A1A1A"/>
<path d="M378.01 300.095C378.01 300.095 373.354 309.803 373.82 313.686C373.82 313.686 387.556 313.763 388.409 308.405C389.263 303.046 378.01 300.095 378.01 300.095Z" fill="#1A1A1A"/>
<path d="M42.9152 275.786C42.8999 277.349 42.4226 278.873 41.5436 280.165C40.6645 281.458 39.423 282.461 37.9753 283.049C36.5277 283.637 34.9386 283.782 33.4082 283.468C31.8779 283.154 30.4747 282.393 29.3755 281.282C28.2762 280.171 27.53 278.76 27.2308 277.225C26.9316 275.691 27.0928 274.102 27.6942 272.659C28.2955 271.216 29.31 269.983 30.61 269.116C31.91 268.249 33.4373 267.786 34.9995 267.786C36.0456 267.786 37.0813 267.994 38.0467 268.397C39.0122 268.8 39.8883 269.39 40.6243 270.134C41.3604 270.878 41.9418 271.76 42.335 272.73C42.7282 273.7 42.9254 274.739 42.9152 275.786Z" fill="#1A1A1A"/>
<path d="M181.361 320.831C185.733 320.831 189.277 317.284 189.277 312.909C189.277 308.534 185.733 304.987 181.361 304.987C176.989 304.987 173.445 308.534 173.445 312.909C173.445 317.284 176.989 320.831 181.361 320.831Z" fill="#1A1A1A"/>
<path d="M262.302 228.333C262.302 228.333 264.087 219.479 263.389 206.199C262.69 192.918 246.704 188.879 246.704 188.879C246.704 188.879 257.646 174.123 256.948 165.735C256.327 158.59 247.713 155.173 238.478 154.319C243.367 159.911 253.145 174.279 237.935 187.404C237.935 187.404 252.602 193.229 250.351 209.771C248.101 226.314 223.423 213.266 223.423 213.266C223.423 213.266 232.114 224.605 237.857 232.294L258.577 231.051L262.302 228.333Z" fill="white"/>
<path d="M385.46 480.975C384.839 480.742 359.618 454.025 359.618 454.025C359.696 452.782 384.839 427.542 384.839 427.542C386.159 428.862 361.636 453.404 361.636 453.404L386.159 479.421C385.926 480.897 385.693 480.975 385.46 480.975Z" fill="white"/>
<path d="M339.441 307.939C341.536 300.328 345.494 289.455 344.02 286.969C342.252 284.247 340.05 281.833 337.501 279.824L335.095 277.65C330.517 273.223 331.603 269.806 332.302 268.563C333.543 266.155 336.647 264.913 339.829 265.534C345.494 266.699 352.246 273.378 357.756 278.737C361.403 282.31 372.578 282.31 376.691 281.999C376.82 281.988 376.949 282.004 377.071 282.046C377.193 282.088 377.305 282.155 377.4 282.243C377.495 282.33 377.571 282.437 377.622 282.555C377.674 282.674 377.7 282.802 377.7 282.931C376.148 283.94 361.325 284.795 356.902 280.523C352.479 276.252 344.563 268.408 339.441 267.398C337.113 266.932 334.862 267.709 333.931 269.417C333 271.126 333.854 273.844 336.414 276.329L338.743 278.426C341.412 280.55 343.719 283.094 345.572 285.96C348.133 290.076 341.614 304.522 340.295 307.395C340.22 307.558 340.1 307.697 339.948 307.793C339.797 307.889 339.621 307.94 339.441 307.939V307.939Z" fill="#1A1A1A"/>
<path d="M373.276 314.851C373.144 314.841 373.014 314.805 372.896 314.745C372.777 314.685 372.671 314.602 372.585 314.501C372.498 314.4 372.433 314.283 372.391 314.156C372.35 314.03 372.335 313.896 372.345 313.764C372.5 313.142 374.751 298.697 381.968 297.066C389.185 295.435 407.19 286.503 409.13 277.572C409.267 277.018 409.253 276.438 409.089 275.891C408.925 275.345 408.617 274.852 408.198 274.465C407.034 273.378 405.017 273.145 402.999 273.766C398.886 275.009 383.598 283.863 383.443 283.94C383.287 284.018 367.301 282.232 360.472 289.688C366.059 280.756 380.338 281.921 382.744 282.154C384.917 280.912 398.42 273.223 402.456 271.98C405.172 271.126 407.81 271.592 409.518 273.145C410.163 273.747 410.633 274.512 410.879 275.36C411.125 276.208 411.137 277.106 410.915 277.96C408.664 288.367 388.487 297.454 382.434 298.852C376.381 300.25 374.829 310.191 374.208 314.074C374.171 314.294 374.056 314.492 373.886 314.635C373.715 314.777 373.499 314.854 373.276 314.851Z" fill="#1A1A1A"/>
<path d="M369.396 283.94C371.414 280.601 393.531 267.01 397.955 267.631C399.329 267.736 400.632 268.286 401.668 269.196C402.703 270.106 403.416 271.329 403.697 272.679C401.835 272.834 401.214 269.883 397.722 269.495C394.23 269.107 379.174 278.116 369.862 283.785L369.396 283.94Z" fill="#1A1A1A"/>
<path d="M360.239 282.387C360.084 280.368 369.241 274.388 371.414 273.223C373.587 272.058 373.664 271.902 375.061 271.126C379.718 268.33 385.46 264.913 389.729 264.68C395.549 264.369 396.713 268.097 396.791 268.252C394.928 268.641 394.152 266.311 389.806 266.621C385.46 266.932 380.261 270.194 375.993 272.757L372.268 274.854C370.172 276.019 360.782 282.154 360.705 282.232L360.239 282.387Z" fill="#1A1A1A"/>
<path d="M481.457 532H0.931244C0.931244 530.136 481.457 530.136 481.457 530.136C482.388 531.612 482 532 481.457 532Z" fill="#1A1A1A"/>
<path d="M220.318 231.051C221.095 230.896 221.56 231.206 221.793 233.925C222.026 236.643 221.25 237.42 220.629 237.42C220.008 237.42 219.232 236.488 219.31 234.313C219.387 232.138 219.387 231.206 220.318 231.051Z" fill="#1A1A1A"/>
<path d="M245.928 231.284C246.704 231.206 247.17 231.517 247.325 234.235C247.48 236.954 246.704 237.73 246.005 237.653C245.307 237.575 244.686 236.721 244.841 234.546C244.997 232.371 244.997 231.439 245.928 231.284Z" fill="#1A1A1A"/>
<path d="M203.944 250.7C200.452 250.467 197.813 249.225 195.951 247.05C194.089 244.923 193.142 242.147 193.316 239.325C193.491 236.502 194.772 233.864 196.882 231.983C197.932 231.044 199.16 230.325 200.493 229.872C201.827 229.418 203.238 229.238 204.642 229.343C205.757 229.418 206.854 229.653 207.902 230.041C207.478 230.509 206.942 230.861 206.345 231.065C205.748 231.269 205.108 231.318 204.487 231.206C203.336 231.135 202.181 231.291 201.09 231.666C199.999 232.042 198.992 232.628 198.127 233.392C197.262 234.157 196.557 235.084 196.05 236.122C195.543 237.159 195.246 238.286 195.175 239.439C195.103 240.591 195.259 241.747 195.634 242.839C196.009 243.931 196.595 244.938 197.359 245.804C198.123 246.669 199.05 247.375 200.086 247.882C201.123 248.389 202.249 248.687 203.401 248.759C204.981 248.842 206.557 248.522 207.979 247.827C207.359 250.234 205.651 250.7 203.944 250.7Z" fill="#1A1A1A"/>
<path d="M201.771 245.885C201.228 244.176 206.815 239.905 206.815 239.905L200.529 235.245C201.693 233.692 208.911 239.128 208.911 239.128C208.911 240.604 202.392 245.652 202.392 245.652C202.309 245.73 202.212 245.791 202.105 245.831C201.998 245.871 201.885 245.89 201.771 245.885V245.885Z" fill="#1A1A1A"/>
<path d="M263.078 250.7C261.373 250.684 259.696 250.258 258.189 249.458C260.44 248.526 261.992 248.836 263.622 248.759C264.773 248.687 265.9 248.389 266.936 247.882C267.973 247.375 268.899 246.669 269.663 245.804C270.427 244.938 271.013 243.931 271.388 242.839C271.763 241.747 271.919 240.591 271.848 239.439C271.776 238.286 271.479 237.159 270.972 236.122C270.466 235.084 269.76 234.157 268.895 233.392C268.03 232.628 267.024 232.041 265.932 231.666C264.841 231.291 263.687 231.135 262.535 231.206C261.54 231.236 260.562 231.475 259.664 231.905C259.974 229.653 261.216 229.42 262.38 229.342C263.784 229.242 265.194 229.425 266.527 229.878C267.86 230.332 269.088 231.047 270.14 231.983C271.198 232.895 272.059 234.012 272.673 235.267C273.286 236.522 273.639 237.888 273.71 239.284C273.81 240.689 273.628 242.1 273.175 243.434C272.722 244.767 272.007 245.997 271.072 247.05C270.16 248.108 269.044 248.97 267.79 249.584C266.536 250.199 265.171 250.552 263.777 250.622L263.078 250.7Z" fill="#1A1A1A"/>
<path d="M265.251 245.885C264.631 245.652 258.034 240.604 258.034 240.604C258.112 239.128 265.329 233.692 265.329 233.692C266.493 235.245 260.207 239.905 260.207 239.905L265.795 244.176C265.795 245.73 265.484 245.885 265.251 245.885Z" fill="#1A1A1A"/>
<path d="M333.466 444.938L330.439 444.783C314.375 443.54 297.302 431.037 297.612 399.738C299.242 429.794 315.384 441.754 330.594 442.919L333.466 443.074C365.128 443.074 372.656 399.815 375.139 385.37C378.942 363.624 387.4 309.414 387.478 308.871C389.185 309.725 380.804 363.935 377.001 385.681C374.441 400.514 366.68 444.938 333.466 444.938Z" fill="#1A1A1A"/>
<path d="M308.399 387.001C307.778 386.923 307.39 386.535 307.468 385.991C308.528 374.771 310.369 363.637 312.978 352.673C317.262 334.049 322.705 315.71 329.275 297.765C330.982 298.697 322.058 321.996 314.763 353.139C312.226 364.01 310.411 375.036 309.33 386.147C309.296 386.374 309.184 386.582 309.015 386.738C308.846 386.893 308.628 386.986 308.399 387.001Z" fill="#1A1A1A"/>
<path d="M233.511 271.669C228.777 271.669 222.103 270.738 216.749 266.466C212.636 263.204 209.919 257.923 208.367 250.389C207.436 245.419 207.203 229.653 207.281 224.527C208.755 223.595 209.143 223.984 209.143 224.527C209.066 230.041 209.299 245.419 210.23 250.001C211.627 257.146 214.11 262.039 217.913 264.99C222.879 268.951 229.088 269.806 233.511 269.806C234.442 271.203 233.977 271.669 233.511 271.669Z" fill="#1A1A1A"/>
<path d="M233.511 271.669C237.857 269.806 244.143 268.951 249.11 264.99C252.835 262.039 255.396 257.146 256.792 250.001C257.646 245.574 257.801 234.624 257.724 228.333C259.664 232.682 259.586 245.264 258.577 250.389C257.103 257.923 254.387 263.204 250.274 266.466C244.919 270.738 238.167 271.669 233.511 271.669Z" fill="#1A1A1A"/>
<path d="M257.413 229.265C239.642 229.265 221.327 212.567 216.671 207.985C215.507 211.713 212.248 221.343 208.911 225.149C211.316 219.557 215.352 206.121 215.352 205.966C217.137 205.81 238.943 228.178 258.577 227.323C258.189 229.265 257.801 229.265 257.413 229.265Z" fill="#1A1A1A"/>
<path d="M218.146 277.805C217.525 277.727 217.137 277.339 217.214 276.795C217.68 271.592 217.835 266.854 217.835 266.777C219.698 266.932 219.62 271.669 219.077 276.951C219.042 277.178 218.931 277.386 218.761 277.542C218.592 277.697 218.375 277.79 218.146 277.805V277.805Z" fill="#1A1A1A"/>
<path d="M248.799 277.339C247.965 273.899 247.445 270.389 247.247 266.854C249.11 266.854 249.265 271.281 249.73 276.329C248.877 277.339 248.877 277.339 248.799 277.339Z" fill="#1A1A1A"/>
<path d="M203.323 231.206C202.159 229.731 196.649 211.324 202.314 201.616C203.066 200.268 204.1 199.098 205.346 198.186C206.592 197.274 208.019 196.643 209.531 196.335C213.294 191.29 218.8 187.829 224.975 186.627C237.779 184.375 258.189 187.559 263.156 201.772C265.407 208.063 265.407 215.363 263.234 229.498C263.466 215.441 263.544 208.373 261.371 202.393C256.792 189.19 237.469 186.317 225.285 188.491C216.05 190.122 210.851 197.578 210.851 197.655C207.436 198.665 205.341 200.141 203.944 202.626C198.667 211.557 204.177 229.808 204.254 229.964C204.332 230.119 203.401 231.206 203.323 231.206Z" fill="#1A1A1A"/>
<path d="M150.863 532C154.743 521.127 172.98 425.833 166.927 398.573C160.874 371.313 170.652 342.965 170.729 342.732C172.437 343.664 162.736 370.847 168.789 398.184C174.842 425.522 156.45 521.826 151.716 531.456C151.634 531.614 151.512 531.748 151.363 531.843C151.213 531.938 151.04 531.993 150.863 532V532Z" fill="#1A1A1A"/>
<path d="M315.694 532C310.107 521.826 291.714 425.678 297.768 398.184C303.821 370.691 294.12 343.664 294.043 343.354C295.905 342.965 305.761 370.691 299.63 398.573C293.499 426.454 311.814 521.127 316.548 530.68C316.005 532 315.849 532 315.694 532Z" fill="#1A1A1A"/>
<path d="M373.121 314.773C367.886 314.719 362.666 314.199 357.523 313.22C343.864 310.812 332.146 305.764 329.585 301.26C329.289 300.805 329.1 300.289 329.033 299.751C328.966 299.213 329.022 298.666 329.197 298.153C331.06 293.105 338.432 293.105 344.252 293.959C339.751 295.202 332.457 294.736 330.982 298.774C330.911 299.035 330.894 299.308 330.935 299.576C330.975 299.843 331.07 300.099 331.215 300.328C333.465 304.288 344.951 309.104 357.833 311.434C365.516 312.832 372.888 313.22 378.631 312.599C384.374 311.977 387.09 310.657 387.478 308.871C387.866 307.084 384.684 303.978 378.321 301.027C384.451 301.803 389.961 305.686 389.263 309.181C388.564 312.676 385.15 313.763 378.864 314.462C376.958 314.688 375.04 314.792 373.121 314.773V314.773Z" fill="#1A1A1A"/>
<path d="M133.712 480.509C126.966 480.613 120.344 478.693 114.699 474.994C100.498 465.519 94.9876 446.336 92.9699 435.696C92.1163 431.27 91.1074 424.979 90.0209 418.377C88.9345 411.776 88.0808 406.262 86.9944 400.281C88.2361 399.116 88.7017 399.505 88.8569 399.971C89.8657 405.951 90.8746 412.242 91.8834 418.067C92.8923 423.891 93.9787 430.881 94.8324 435.386C96.7725 445.637 102.127 464.354 115.708 473.364C123.236 478.412 132.393 479.887 142.869 477.635C148.612 476.47 162.348 471.655 164.909 453.714C163.978 473.674 148.069 478.489 143.257 479.499C140.119 480.164 136.92 480.503 133.712 480.509V480.509Z" fill="#1A1A1A"/>
<path d="M162.115 434.454C152.492 406.728 143.723 383.195 143.568 382.962C145.43 382.496 154.277 406.106 162.969 433.289C162.27 434.454 162.193 434.454 162.115 434.454Z" fill="#1A1A1A"/>
<path d="M97.6262 404.475C91.9611 404.475 87.848 403.31 86.9944 400.437C89.8657 403.388 102.36 403.932 118.502 399.039C131.074 395.233 141.861 389.175 143.646 384.982C143.787 384.75 143.868 384.486 143.881 384.215C143.895 383.944 143.84 383.673 143.723 383.428C141.938 379.778 135.963 380.477 131.384 381.72C131.262 381.754 131.133 381.764 131.007 381.747C130.881 381.73 130.76 381.688 130.651 381.622C130.542 381.557 130.447 381.47 130.373 381.366C130.299 381.263 130.247 381.145 130.22 381.021C138.601 377.836 143.49 378.691 145.43 382.574C145.651 383.076 145.764 383.618 145.764 384.166C145.764 384.714 145.651 385.256 145.43 385.758C143.335 390.496 132.315 396.787 119.045 400.825C111.673 403.077 103.757 404.475 97.6262 404.475Z" fill="#1A1A1A"/>
<path d="M87.9257 401.058C85.9856 397.097 91.185 391.894 96.6173 388.632C91.8834 393.68 88.3137 398.107 88.7793 399.893C89.2449 401.679 88.0033 401.058 87.9257 401.058Z" fill="#1A1A1A"/>
<path d="M213.877 228.178C214.653 222.275 221.095 220.955 224.897 221.809C225.44 223.44 224.975 223.751 224.432 223.595C221.327 222.974 215.973 224.139 214.731 227.556C214.679 227.741 214.566 227.902 214.412 228.015C214.257 228.127 214.069 228.185 213.877 228.178V228.178Z" fill="#1A1A1A"/>
<path d="M234.83 258.622C233.436 258.63 232.048 258.42 230.717 258.001C231.338 256.292 235.839 257.69 238.788 255.748C240.34 254.661 241.194 252.797 241.349 250.156C243.057 253.496 241.892 255.904 239.875 257.302C238.35 258.206 236.602 258.663 234.83 258.622V258.622Z" fill="#1A1A1A"/>
<path d="M226.915 249.613C225.984 249.069 223.112 246.429 223.035 243.633C223 243.145 223.072 242.657 223.246 242.2C223.42 241.744 223.693 241.332 224.043 240.992C224.421 240.584 224.876 240.257 225.383 240.03C225.89 239.803 226.437 239.681 226.992 239.672C228.138 239.708 229.246 240.087 230.174 240.759C230.795 235.633 231.183 228.411 230.097 226.78C233.589 228.643 232.114 240.293 231.882 242.623C229.786 242.701 228.389 241.536 226.992 241.536C226.378 241.545 225.793 241.796 225.363 242.235C225.225 243.298 225.352 244.378 225.731 245.38C226.11 246.383 226.73 247.276 227.536 247.982C227.458 249.535 227.148 249.613 226.915 249.613Z" fill="#1A1A1A"/>
<path d="M213.412 203.014C212.636 202.626 209.687 198.354 209.687 198.354C211.161 197.345 214.188 201.539 214.188 201.539C213.8 203.014 213.644 203.014 213.412 203.014Z" fill="#1A1A1A"/>
<path d="M111.44 182.356H105.775C102.399 182.356 99.162 181.014 96.7752 178.625C94.3884 176.236 93.0475 172.997 93.0475 169.619V154.164C103.446 155.328 113.69 155.406 122.925 152.455C124.167 154.164 124.167 169.619 124.167 169.619C124.146 172.99 122.799 176.218 120.417 178.603C118.034 180.987 114.809 182.335 111.44 182.356V182.356ZM94.91 154.552V169.619C94.9305 172.489 96.0842 175.235 98.1195 177.257C100.155 179.279 102.907 180.414 105.775 180.414H111.44C114.308 180.414 117.06 179.279 119.095 177.257C121.13 175.235 122.284 172.489 122.304 169.619V154.552C113.358 157.151 103.857 157.151 94.91 154.552V154.552Z" fill="#1A1A1A"/>
<path d="M108.646 156.493C102.256 156.493 95.9288 155.234 90.0254 152.787C84.122 150.34 78.7579 146.753 74.2396 142.231C69.7213 137.709 66.1372 132.341 63.6919 126.433C61.2466 120.525 59.9881 114.193 59.9881 107.798C59.9996 98.8105 62.4961 90.0016 67.2014 82.3465C71.9066 74.6914 78.637 68.4888 86.6472 64.4255C94.6575 60.3622 103.635 58.5968 112.586 59.3245C121.537 60.0523 130.112 63.245 137.362 68.5491C144.612 73.8532 150.253 81.0617 153.662 89.3765C157.071 97.6913 158.114 106.788 156.676 115.659C155.237 124.531 151.374 132.831 145.513 139.64C139.652 146.45 132.022 151.503 123.468 154.241C118.667 155.727 113.671 156.486 108.646 156.493V156.493ZM108.646 60.9664C97.491 60.9618 86.7014 64.9452 78.2219 72.1986C69.7424 79.452 64.1309 89.4981 62.3988 100.526C60.6668 111.554 62.9281 122.839 68.7753 132.346C74.6224 141.853 83.6707 148.957 94.2891 152.377C103.598 155.356 113.6 155.383 122.925 152.455C133.597 149.082 142.707 141.993 148.604 132.474C154.501 122.955 156.794 111.636 155.067 100.57C153.34 89.5045 147.707 79.4245 139.191 72.1586C130.674 64.8926 119.837 60.9218 108.646 60.9664V60.9664Z" fill="#1A1A1A"/>
<path d="M79.9324 128.534H78.3803C81.3292 126.748 85.3647 126.67 88.0032 124.34C88.5789 123.827 89.0991 123.254 89.5553 122.632C87.4438 121.123 85.7804 119.07 84.7419 116.69C83.7034 114.311 83.3286 111.694 83.6574 109.118C83.8902 107.798 85.0543 102.75 87.6152 101.274C88.0443 101.049 88.519 100.925 89.0031 100.912C89.4873 100.898 89.9681 100.996 90.4089 101.197C92.1938 102.051 92.8923 104.536 93.3579 106.167C93.955 108.264 94.2681 110.432 94.2892 112.613C94.3044 115.872 93.5604 119.09 92.1162 122.011C95.8412 124.03 101.041 124.962 107.87 124.806C111.228 124.794 114.559 124.216 117.726 123.098C120.9 121.936 123.656 119.854 125.641 117.118C122.227 115.176 120.364 112.613 119.976 109.973C119.837 108.287 120.159 106.596 120.907 105.08C121.208 104.313 121.668 103.619 122.257 103.043C122.845 102.468 123.549 102.024 124.322 101.74C124.837 101.55 125.391 101.493 125.934 101.575C126.477 101.656 126.99 101.873 127.426 102.206C129.754 103.915 129.832 108.652 129.832 109.584C129.826 111.899 129.296 114.183 128.28 116.263C132.936 118.05 138.601 118.205 143.956 118.205C138.555 120.051 132.677 119.941 127.349 117.894C125.212 121.115 122.076 123.544 118.424 124.806C115.043 126.045 111.47 126.676 107.87 126.67C100.73 126.826 95.2204 125.816 91.185 123.641C90.6434 124.431 89.9899 125.137 89.2449 125.738C86.5287 128.068 82.8813 128.534 79.9324 128.534ZM89.0897 102.75C86.9944 103.759 85.7527 107.487 85.5199 109.351C85.1143 112.602 85.9759 115.884 87.9256 118.516C88.6882 119.46 89.5759 120.296 90.5642 121.001C91.7885 118.374 92.4242 115.511 92.4267 112.613C92.4461 110.721 92.1846 108.837 91.6506 107.021C91.185 105.39 90.6418 103.371 89.6329 102.905L89.0897 102.75ZM125.486 103.371C124.839 103.536 124.238 103.845 123.727 104.275C123.216 104.706 122.809 105.246 122.537 105.856C121.941 107.058 121.698 108.405 121.839 109.74C122.149 111.837 123.701 113.856 126.029 115.176C127.504 113.7 127.969 111.681 127.969 109.584C127.969 107.487 127.426 104.536 126.262 103.682C126.162 103.577 126.042 103.496 125.908 103.442C125.774 103.389 125.63 103.364 125.486 103.371V103.371Z" fill="#1A1A1A"/>
<path d="M175.696 380.943H147.293C147.293 379.079 175.696 379.079 175.696 379.079C181.404 379.059 186.872 376.775 190.901 372.728C194.93 368.681 197.192 363.201 197.192 357.488V264.757C197.192 259.045 194.93 253.565 190.901 249.518C186.872 245.471 181.404 243.187 175.696 243.167H119.122C119.122 241.303 175.696 241.303 175.696 241.303C181.898 241.323 187.84 243.804 192.218 248.2C196.596 252.596 199.055 258.55 199.055 264.757V357.488C199.055 363.696 196.596 369.65 192.218 374.046C187.84 378.442 181.898 380.923 175.696 380.943V380.943Z" fill="#1A1A1A"/>
<path d="M79.0787 380.943H23.3589C17.1566 380.923 11.2153 378.442 6.83692 374.046C2.45849 369.65 -4.9261e-05 363.696 -1.52584e-05 357.488V264.757C-4.9261e-05 258.55 2.45849 252.596 6.83692 248.2C11.2153 243.804 17.1566 241.323 23.3589 241.303H60.7642C60.7642 243.167 23.3589 243.167 23.3589 243.167C17.6506 243.187 12.1831 245.471 8.15393 249.518C4.12479 253.565 1.86247 259.045 1.86251 264.757V357.488C1.86247 363.201 4.12479 368.681 8.15393 372.728C12.1831 376.775 17.6506 379.059 23.3589 379.079H79.0787C80.01 380.477 79.5444 380.943 79.0787 380.943Z" fill="#1A1A1A"/>
<path d="M99.5663 347.314C92.5819 333.102 88.2361 315.006 93.0475 307.473C93.734 306.376 94.6993 305.482 95.8448 304.881C96.9902 304.281 98.2746 303.996 99.5663 304.056C107.87 304.056 110.896 314.851 114.078 326.345C115.863 332.558 117.648 338.927 120.287 343.431C115.941 339.703 114.078 333.18 112.293 326.811C109.267 316.093 106.395 305.919 99.5663 305.919C98.5853 305.865 97.6075 306.073 96.7342 306.524C95.8609 306.975 95.124 307.651 94.5996 308.482C90.8746 314.307 93.2803 330.073 100.42 345.994C99.7991 347.314 99.6439 347.314 99.5663 347.314Z" fill="#1A1A1A"/>
<path d="M134.566 394.457C133.635 393.758 129.599 378.613 129.599 378.613C132.16 375.895 135.73 357.178 128.668 347.237C125.02 342.189 104.921 345.839 93.5907 352.207C88.6241 355.003 86.296 357.799 87.1496 359.818C87.804 361.32 88.7842 362.656 90.0192 363.731C91.2541 364.805 92.7128 365.591 94.2892 366.032C100.653 368.051 110.12 366.109 118.269 361.139C110.664 367.973 100.653 369.992 93.6683 367.818C91.8391 367.294 90.1506 366.366 88.727 365.102C87.3034 363.839 86.181 362.272 85.4423 360.517C84.5111 358.343 85.0543 354.926 92.6595 350.576C104.067 344.13 125.486 339.626 130.142 346.149C137.437 356.323 134.488 374.73 131.539 378.613L135.497 393.292C134.721 394.457 134.643 394.457 134.566 394.457Z" fill="#1A1A1A"/>
<path d="M109.732 377.914C108.425 377.908 107.124 377.752 105.852 377.448C100.886 376.361 95.8412 373.72 89.7881 369.138C86.1737 366.31 82.8932 363.079 80.01 359.508C78.2251 357.333 75.897 353.916 76.1298 349.955C76.2021 348.781 76.4642 347.627 76.9058 346.538C78.6907 342.422 83.0365 338.072 87.6928 338.072C90.5641 338.15 92.5819 339.703 94.522 341.179C97.6262 343.587 99.411 345.062 101.584 346.848C98.247 346.46 96.4621 345.062 93.9787 343.121C91.4954 341.179 89.9433 340.014 87.7704 339.936C83.9678 339.936 80.1652 343.664 78.6131 347.314C78.2317 348.172 78.0208 349.095 77.9922 350.033C77.837 352.596 78.9235 355.236 81.4844 358.343C84.2638 361.811 87.4416 364.939 90.9522 367.662C96.6949 372.089 101.584 374.652 106.24 375.662C108.732 376.235 111.332 376.127 113.768 375.351C115.274 374.879 116.601 373.957 117.57 372.711C119.588 369.759 118.114 366.497 117.027 364.789C120.907 367.429 121.063 370.924 119.045 373.72C117.907 375.304 116.308 376.497 114.466 377.138C112.937 377.634 111.341 377.896 109.732 377.914Z" fill="#1A1A1A"/>
<path d="M104.533 386.846H102.67C97.6262 386.38 92.2715 384.36 85.8303 380.477C81.8762 378.137 78.2046 375.348 74.8881 372.167C72.8704 370.225 70.1543 367.119 69.9214 363.08C69.8243 361.927 69.9562 360.765 70.3095 359.663C71.0855 356.945 72.7928 353.295 76.5954 351.431C74.6459 354.074 73.1268 357.01 72.0944 360.129C71.8046 361.057 71.6991 362.034 71.7839 363.003C71.9391 365.566 73.336 368.051 76.2074 370.847C79.4143 373.901 82.9547 376.585 86.7616 378.846C92.9699 382.574 98.0918 384.516 102.903 384.982C105.447 385.301 108.028 384.897 110.353 383.817C111.772 383.14 112.96 382.059 113.768 380.71C114.16 380.078 114.405 379.367 114.486 378.627C114.566 377.888 114.48 377.14 114.233 376.439C116.639 377.836 116.484 379.545 115.398 381.564C114.442 383.266 112.976 384.624 111.207 385.448C109.128 386.446 106.838 386.926 104.533 386.846V386.846Z" fill="#1A1A1A"/>
<path d="M102.205 404.242C101.274 403.543 98.635 391.039 98.635 391.039C94.134 389.719 91.2626 386.613 88.0032 381.953C92.6595 385.37 95.3756 388.321 99.6439 389.331C100.342 390.107 103.136 403.077 103.136 403.077C102.36 404.242 102.282 404.242 102.205 404.242Z" fill="#1A1A1A"/>
<path d="M135.264 380.788C134.333 379.467 133.557 336.752 151.949 308.482C170.341 280.213 211.549 283.785 211.937 283.863C212.713 285.338 212.248 285.804 211.782 285.727C211.316 285.649 171.428 281.999 153.501 309.492C135.575 336.985 136.195 379.39 136.195 379.856L135.264 380.788Z" fill="#1A1A1A"/>
<path d="M321.126 326.5C318.333 320.132 311.814 309.57 311.736 309.492C293.81 281.999 256.948 285.416 256.637 285.494C256.792 283.552 294.741 279.98 313.288 308.482C313.599 308.948 320.04 319.355 321.98 325.258C321.282 326.5 321.204 326.5 321.126 326.5Z" fill="#1A1A1A"/>
<path d="M34.9995 282.387C33.6949 282.387 32.4195 282 31.3348 281.275C30.25 280.549 29.4046 279.518 28.9053 278.312C28.406 277.106 28.2754 275.778 28.5299 274.498C28.7844 273.217 29.4127 272.041 30.3352 271.118C31.2577 270.195 32.4331 269.566 33.7126 269.311C34.9922 269.056 36.3185 269.187 37.5238 269.687C38.7292 270.186 39.7594 271.033 40.4842 272.118C41.209 273.204 41.5959 274.48 41.5959 275.786C41.5757 277.53 40.8743 279.198 39.6416 280.431C38.4089 281.665 36.7427 282.367 34.9995 282.387V282.387ZM34.9995 271.048C33.744 271.048 32.54 271.547 31.6522 272.436C30.7644 273.324 30.2656 274.529 30.2656 275.786C30.2656 277.042 30.7644 278.247 31.6522 279.136C32.54 280.024 33.744 280.523 34.9995 280.523C36.255 280.523 37.4591 280.024 38.3469 279.136C39.2346 278.247 39.7334 277.042 39.7334 275.786C39.7334 274.529 39.2346 273.324 38.3469 272.436C37.4591 271.547 36.255 271.048 34.9995 271.048Z" fill="white"/>
<path d="M181.361 319.045C180.149 319.045 178.963 318.685 177.955 318.011C176.947 317.336 176.161 316.378 175.697 315.257C175.233 314.136 175.112 312.902 175.348 311.712C175.585 310.522 176.169 309.429 177.026 308.571C177.883 307.713 178.976 307.128 180.165 306.892C181.354 306.655 182.587 306.776 183.707 307.241C184.828 307.705 185.785 308.492 186.459 309.501C187.132 310.51 187.492 311.696 187.492 312.909C187.492 314.536 186.846 316.097 185.696 317.248C184.547 318.398 182.987 319.045 181.361 319.045V319.045ZM181.361 308.638C180.517 308.638 179.692 308.888 178.99 309.358C178.288 309.827 177.741 310.494 177.418 311.275C177.095 312.055 177.01 312.914 177.175 313.743C177.34 314.571 177.746 315.332 178.343 315.93C178.94 316.527 179.7 316.934 180.528 317.099C181.356 317.264 182.215 317.179 182.995 316.856C183.774 316.532 184.441 315.985 184.91 315.282C185.379 314.58 185.629 313.754 185.629 312.909C185.629 311.776 185.18 310.69 184.379 309.889C183.579 309.088 182.493 308.638 181.361 308.638V308.638Z" fill="white"/>
<path d="M56.9615 341.567C53.6046 341.548 50.3828 340.242 47.9594 337.917C51.5292 338.616 54.0902 339.703 56.9615 339.703C57.4271 341.567 56.9615 341.567 56.9615 341.567ZM66.5845 338.771C68.3694 335.509 70.5423 333.335 72.6376 330.384C72.3876 332.089 71.755 333.715 70.7873 335.141C69.8196 336.567 68.5419 337.755 67.0501 338.616L66.5845 338.771ZM43.0703 330.228C41.1213 327.204 39.7039 323.868 38.8797 320.365C41.5959 323.316 42.76 326.345 43.924 328.908C43.3808 330.151 43.2256 330.228 43.0703 330.228ZM78.3803 323.549C78.288 321.431 78.7994 319.33 79.8548 317.491L81.8725 313.453C82.8813 315.627 82.1829 316.948 81.5621 318.268C80.9412 319.588 80.01 321.452 79.1563 323.006C79.0874 323.157 78.9791 323.288 78.8426 323.383C78.7061 323.479 78.5464 323.536 78.3803 323.549V323.549ZM37.638 311.511C36.3568 308.144 35.5473 304.616 35.2323 301.027C37.4829 304.211 37.9485 307.473 38.4917 310.424C37.7157 311.511 37.638 311.511 37.638 311.511ZM35.3875 292.173C34.6028 288.651 34.161 285.062 34.0683 281.455C35.9308 281.843 35.9308 285.649 36.3188 291.163L35.3875 292.173Z" fill="#1A1A1A"/>
<path d="M155.596 369.604C152.853 369.583 150.179 368.745 147.914 367.196C151.716 367.429 154.743 368.051 157.459 367.662C157.071 369.604 156.373 369.604 155.596 369.604ZM166.073 365.1C167.392 361.605 169.255 359.042 170.885 355.857C170.852 357.569 170.463 359.254 169.741 360.806C169.02 362.357 167.982 363.74 166.694 364.867C166.611 364.945 166.514 365.006 166.407 365.046C166.3 365.086 166.187 365.104 166.073 365.1V365.1ZM141.55 360.517C139.177 357.882 137.144 354.96 135.497 351.819C138.912 354.071 140.619 356.789 142.249 358.964C141.938 360.44 141.705 360.517 141.55 360.517ZM175.386 348.169C175.463 344.13 176.317 341.024 177.093 337.684C178.102 341.49 177.248 344.674 176.317 347.547C176.24 347.731 176.111 347.889 175.945 347.999C175.779 348.11 175.585 348.169 175.386 348.169ZM131.927 343.587C130.027 340.576 128.391 337.405 127.038 334.111C130.065 336.364 131.384 339.315 132.703 342.266C132.16 343.509 132.005 343.587 131.927 343.587V343.587ZM179.731 329.219C179.111 329.063 178.723 328.597 178.8 328.131C179.654 322.462 179.964 318.501 179.964 318.423C181.827 318.579 181.516 322.695 180.663 328.364C180.628 328.592 180.517 328.8 180.347 328.955C180.178 329.111 179.961 329.204 179.731 329.219V329.219ZM123.934 325.724C121.451 321.53 120.209 318.812 118.967 316.404C121.839 317.957 123.158 320.753 124.788 324.481C124.167 325.724 124.089 325.724 123.934 325.724V325.724ZM115.165 308.405C114.3 307.629 113.543 306.741 112.914 305.764C114.932 305.376 115.398 306.152 115.941 306.929C116.484 307.706 115.32 308.405 115.165 308.405Z" fill="#1A1A1A"/>
<path d="M220.008 190.044C218.766 189.035 205.341 173.269 210.23 162.629C212.946 156.726 220.784 153.698 233.589 153.698C246.393 153.698 254.154 156.649 256.87 162.551C261.604 173.114 248.023 188.802 247.402 189.501C246.161 188.103 259.431 172.803 255.163 163.328C252.835 158.202 245.54 155.561 233.589 155.561C221.638 155.561 214.343 158.202 211.937 163.406C207.514 172.958 220.551 188.336 220.706 188.491C220.474 189.967 220.241 190.044 220.008 190.044Z" fill="#1A1A1A"/>
<path d="M99.5663 314.462C96.2016 314.478 92.9081 313.493 90.1031 311.634C87.298 309.774 85.1076 307.123 83.8094 304.017C82.5111 300.91 82.1635 297.488 82.8104 294.184C83.4574 290.879 85.07 287.841 87.4437 285.455C89.8174 283.069 92.8455 281.441 96.1444 280.778C99.4432 280.116 102.864 280.448 105.974 281.733C109.084 283.018 111.743 285.198 113.614 287.997C115.485 290.795 116.484 294.087 116.484 297.454C116.484 301.952 114.704 306.266 111.534 309.453C108.363 312.641 104.06 314.442 99.5663 314.462V314.462ZM99.5663 282.387C96.5667 282.372 93.6303 283.249 91.1298 284.907C88.6294 286.565 86.6778 288.93 85.5228 291.7C84.3678 294.471 84.0616 297.522 84.643 300.467C85.2245 303.412 86.6673 306.118 88.7883 308.24C90.9093 310.363 93.6128 311.807 96.5555 312.389C99.4982 312.971 102.547 312.664 105.316 311.508C108.084 310.352 110.447 308.399 112.103 305.897C113.76 303.395 114.637 300.456 114.621 297.454C114.621 293.458 113.035 289.626 110.212 286.8C107.388 283.975 103.559 282.387 99.5663 282.387Z" fill="#1A1A1A"/>
<path d="M233.434 282.387C215.817 282.387 214.498 273.999 214.421 273.611C216.283 273.456 217.602 280.523 233.434 280.523C249.265 280.523 250.041 273.533 250.041 273.456C251.826 273.922 251.05 282.387 233.434 282.387Z" fill="#1A1A1A"/>
<path d="M216.128 288.212C209.221 285.183 205.341 280.135 205.341 274.698C205.341 271.514 207.203 267.087 215.895 263.903C210.385 267.942 207.203 270.97 207.203 274.698C207.203 278.426 210.696 283.785 216.516 286.426C216.826 288.057 216.516 288.212 216.128 288.212Z" fill="#1A1A1A"/>
<path d="M234.287 291.552C231.745 291.558 229.205 291.403 226.682 291.086C229.243 289.532 231.726 289.688 234.287 289.688C251.826 289.688 261.371 281.921 261.371 274.698C261.371 270.893 257.724 267.631 251.283 265.379C259.198 266.155 263.234 270.039 263.234 274.698C263.234 282.853 253.067 291.552 234.287 291.552Z" fill="#1A1A1A"/>
<path d="M211.704 299.629C211.084 299.551 210.696 299.163 210.773 298.619C211.549 288.134 209.687 284.018 209.687 284.018C211.394 283.319 213.412 287.668 212.636 298.774C212.601 299.001 212.489 299.21 212.32 299.365C212.151 299.521 211.934 299.614 211.704 299.629V299.629Z" fill="#1A1A1A"/>
<path d="M256.404 299.629C254.62 287.668 256.637 283.474 256.715 283.241C258.345 284.173 256.482 288.134 257.336 298.619L256.404 299.629Z" fill="#1A1A1A"/>
<path d="M83.5798 54.0543C82.7261 53.433 62.7043 -1.68156e-05 62.7043 -1.68156e-05C64.4115 -0.698995 84.4334 52.8117 84.4334 52.8117C83.8126 54.0543 83.735 54.0543 83.5798 54.0543Z" fill="#1A1A1A"/>
<path d="M7.83802 219.634C7.21719 218.004 66.8173 157.658 66.8173 157.658C68.2141 158.979 8.53643 219.324 8.53643 219.324C8.34519 219.503 8.09914 219.613 7.83802 219.634V219.634Z" fill="#1A1A1A"/>
<path d="M178.102 186.705C177.481 186.472 145.12 159.056 145.12 159.056C146.362 157.581 178.723 184.996 178.723 184.996C178.645 186.55 178.335 186.705 178.102 186.705Z" fill="#1A1A1A"/>
<path d="M164.909 86.5179C164.443 84.7317 200.685 63.9953 200.685 63.9953C201.616 65.6263 165.375 86.3626 165.375 86.3626L164.909 86.5179Z" fill="#1A1A1A"/>
<path d="M177.093 256.991H137.98C137.98 255.049 177.093 255.049 177.093 255.049C178.024 256.525 177.559 256.991 177.093 256.991Z" fill="#1A1A1A"/>
<path d="M177.093 267.01H158.856C158.856 265.146 177.093 265.146 177.093 265.146C178.024 266.621 177.559 267.01 177.093 267.01Z" fill="#1A1A1A"/>
<path d="M152.725 267.01H142.326C142.326 265.146 152.725 265.146 152.725 265.146C153.656 266.621 153.268 267.01 152.725 267.01Z" fill="#1A1A1A"/>
<path d="M37.7157 121.622H12.9599C12.9599 119.758 37.7157 119.758 37.7157 119.758C38.6469 121.234 38.1813 121.622 37.7157 121.622Z" fill="#1A1A1A"/>
</g>
<defs>
<clipPath id="clip0_2_100">
<rect width="482" height="532" fill="white"/>
</clipPath>
</defs>
</svg>
